<svg xmlns="http://www.w3.org/2000/svg" width="42" height="42" viewBox="0 0 42 42"><g transform="translate(-8636 1446)"><rect width="42" height="42" transform="translate(8636 -1446)" fill="none"/><g transform="translate(7409 -1893)"><g transform="translate(1232 452)" fill="none" stroke="#fff" stroke-width="1"><circle cx="16" cy="16" r="16" stroke="none"/><circle cx="16" cy="16" r="15.5" fill="none"/></g><path d="M3.1-3.312v-.522a4.235,4.235,0,0,1,.351-1.719A7.2,7.2,0,0,1,4.7-7.362a6.27,6.27,0,0,0,.99-1.359,2.682,2.682,0,0,0,.288-1.2,1.463,1.463,0,0,0-.558-1.215,2.437,2.437,0,0,0-1.548-.441,4.8,4.8,0,0,0-1.35.189,6.228,6.228,0,0,0-1.242.513v-1.35a5.509,5.509,0,0,1,1.3-.468,6.422,6.422,0,0,1,1.431-.162,4.524,4.524,0,0,1,1.8.333,2.813,2.813,0,0,1,1.215.954,2.559,2.559,0,0,1,.441,1.521,3.425,3.425,0,0,1-.18,1.107,4.121,4.121,0,0,1-.558,1.062A11.188,11.188,0,0,1,5.76-6.714,7.354,7.354,0,0,0,4.518-5.139a3.715,3.715,0,0,0-.432,1.377l-.054.45ZM2.628,0V-1.836H4.482V0Z" transform="translate(1244 474)" fill="#fff"/></g></g></svg>