<svg xmlns="http://www.w3.org/2000/svg" viewBox="0 0 7154.6 1634" style="enable-background:new 0 0 7154.6 1634" xml:space="preserve"><path d="M1025 1127c-6.9 0-13.8-1.7-17.2-5.2-84.3-63.6-110.1-328.5-129-328.5-29.2 0-221.9 237.3-273.5 304.4-12 15.5-34.4 20.6-58.5 20.6-142.7 0-108.4-72.2-185.7-436.8-101.5 158.2-218.4 378.4-268.3 471.2-5.2 10.3-27.5 17.2-49.9 17.2-24.1 0-43-6.9-43-24.1 6.9-48.2 302.7-636.4 344-691.4 29.2-37.8 72.2-65.4 104.9-65.4 17.2 0 29.2 8.6 36.1 27.5 24.1 86 32.7 314.7 99.8 516 190.9-190.9 285.5-321.6 383.5-321.6 8.6 0 17.2 1.7 22.4 5.2C1016.4 635 1123 979 1123 1059.8c0 5.2-1.7 8.6-1.7 10.3-5.1 26-63.6 56.9-96.3 56.9zM3721.7 375.4c0 111.8-15.5 313-15.5 524.6 0 72.2 1.7 146.2 6.9 218.4 0 31-56.8 60.2-101.5 60.2-12 0-22.4-1.7-29.2-6.9-80.8-53.3-455.8-476.4-560.7-559 8.6 127.3 18.9 431.7 18.9 583 0 67.1 1.7 94.6-24.1 94.6-32.7 0-91.2-55-110.1-110.1-6.9-6.9-6.9-72.2-6.9-158.2 0-123.8 1.7-295.8 1.7-431.7 0-84.3-3.4-154.8-3.4-190.9 0-25.8 32.7-39.6 63.6-39.6 12 0 24.1 1.7 31 6.9 37.8 29.2 519.4 550.4 595.1 622.6 0 0-18.9-349.1-18.9-586.5 0-110.1-5.2-206.4 32.7-206.4 34.4 0 118.7 53.3 118.7 120.4 1.7 15.6 1.7 34.6 1.7 58.6zM4291 963.6c80.8 55 218.4 134.1 340.5 213.3 6.9 3.4 10.3 8.6 10.3 13.8 0 18.9-39.6 39.6-82.6 39.6-91.2 0-256.3-170.3-404.2-228.7-1.7 5.2-1.7 10.3-1.7 15.5 0 61.9 46.4 187.5 46.4 215 0 18.9-27.5 31-53.3 31-25.8 0-56.8-10.3-74-37.8-46.4-70.5-92.9-295.8-92.9-516 0-161.7 10.3-337.1 31-340.5 101.5-13.8 201.2-18.9 292.4-18.9 158.2 0 288.9 17.2 345.7 36.1 115.2 39.6 230.5 123.8 230.5 201.2v5.2c-5.1 109.8-299.2 292.1-588.1 371.2zm49.9-528c-58.5 0-117 3.4-168.5 8.6-20.6 75.7-36.1 199.5-36.1 314.7 0 43-1.7 101.5 8.6 132.4 106.6-18.9 571-245.9 571-359.5v-5.2c-13.8-65.2-192.7-91-375-91zM5807.9 1178.6c0 25.8-24.1 36.1-49.9 36.1-132.4 0-104.9-89.4-177.1-314.7-173.7 60.2-485 98-485 98-43 86-146.2 404.2-161.7 416.2-5.2 10.3-48.2 27.5-75.7 27.5-10.3 0-18.9-3.4-20.6-12 0-185.7 399-1148.9 436.8-1174.7 37.8-25.8 84.3-37.8 122.1-37.8 32.7 0 60.2 8.6 72.2 24.1 101.5 122.1 316.5 758.5 337.1 918.4.1 6.9 1.8 13.8 1.8 18.9zm-442-837.6c-22.4 3.4-153.1 301-233.9 543.5 259.7-115.2 412.8-115.2 412.8-115.2S5379.7 341 5365.9 341zM6624.9 77.9c0 5.2-1.7 10.3-5.2 15.5-18.9 25.8-342.3 60.2-357.7 94.6-25.8 56.8-32.7 1240-41.3 1281.3-1.7 6.9-15.5 12-34.4 12-34.4 0-84.3-17.2-101.5-74-3.4-3.4-5.2-58.5-5.2-132.4 0-316.5 32.7-1074.9 32.7-1078.4 0-3.4-172 48.2-233.9 48.2-55 0-127.3-49.9-130.7-77.4 0-34.4 72.2-20.6 122.1-29.2C5990.2 115.7 6148.4 28 6562.9 28c32.7 0 60.2 22.4 61.9 44.7.1 1.8.1 3.5.1 5.2z"/><path d="M7151.1 373.7c-58.5 74-376.7 607.1-376.7 701.7 0 5.2 0 12 12 12 44.7 0 218.4-70.5 256.3-70.5 32.7 0 89.4 44.7 92.9 65.4 0 27.5-292.4 56.8-393.9 135.9-1.7 0-3.4 1.7-6.9 1.7-29.2 0-123.8-89.4-127.3-120.4v-1.7c0-80.8 288.9-610.6 314.7-632.9 0-1.7 1.7-1.7 1.7-3.4h-5.2c-36.1 0-271.7 67.1-342.3 106.6-3.4 1.7-8.6 1.7-13.8 1.7-29.2 0-86-27.5-89.4-46.4 0-80.8 459.2-168.5 491.9-190.9 12-8.6 32.7-12 55-12 58.5 0 130.7 22.4 134.1 44.7.4 1.6-1.3 5.1-3.1 8.5z"/><g><path d="M1384.8 303.1c37.3-33.8 74-71.2 114.7-103.3 106.4-83.9 229.4-129.6 362.3-150.5 13.3-2.1 22.9-5.8 32.3-18.3 9.3-12.3 27.2-21.3 42.9-25.1 49.2-11.9 98.7-3.5 147.1 6.6 14.7 3.1 26.8 18 40.2 27.3 5 3.4 10.1 7.5 15.7 9 20.2 5.3 41.8 6.9 60.9 14.7 127.5 51.9 252 108.9 349.2 211.2 40.9 43.1 76.9 89.7 107.9 140.5 3.6 5.9 11.1 10.4 17.8 13.2 11.8 5 24.8 7.3 36.4 12.6 9.8 4.5 16 4 19.1-7.3 9.9 6.5 18.8 12.4 27.8 18.3-.3.8-.6 1.7-.9 2.5-4.3-.4-8.5-.7-15.5-1.4 9.9 18.9 5 41.8 25.2 56.1 5.3 3.8 4.9 15.6 6.7 22.2-22.7 24-37.8 48.1-30.6 82.9 16 77.5 28.5 155.6 26.2 235.2-.2 6.4-.6 12.9-1.1 19.3-1.6 21.7-2.4 42.1 6 64.1 16.2 42-6.6 105-42.6 132-4.7 3.6-8.9 8.9-11.4 14.3-20.4 43.7-40.9 87.4-60.1 131.7-7.2 16.5-12.6 34.2-16.1 51.9-3.3 16.5-7.5 31-18 45.1-16.3 21.8-29.2 46.3-42.8 70.1-15.5 27.3-38.4 45.9-66.5 58.8-19.5 9-39 18.1-58.7 26.6-4.6 2-10.3 2.5-15.5 2.3-16.7-.6-30.8 3.2-39.1 19.2-.6 1.1-2.8 2.3-4 2.1-16.5-2.7-21.1 11.4-29.6 20.4-11.1 11.7-21.5 25.2-35.2 32.6-10 5.4-24.8 3.7-37.2 2.7-25.5-2-47.5 7.5-69.6 17.7-4.7 2.2-9 5.8-14 6.9-49.3 11-98.7 21.5-147.9 32.7-3.6.8-6.3 5.5-9.4 8.5-1.9 1.9-3.2 4.7-5.4 5.7-24.1 11-47 24.5-75.9 18.2-28.3-6.2-57.3-9-85.9-14.2-20.4-3.7-39.6-10.6-53.1-27.8-.3-.4-.6-1.1-1-1.2-25-6.4-49.9-12.9-75-18.9-4.8-1.2-10.3.2-14.9-1.3-86.4-27.7-166-67.9-234.9-127.9-4.9-4.2-13.1-4.9-19.9-6.5-4-1-9 .8-12.5-.9-55.5-26.8-106.8-58.7-135.1-116.8-7.5-15.4-17.9-30.7-8.9-50.2 2.1-4.5-2.1-13.8-6-18.9-68.2-89.8-101.9-193.3-120.1-302.8-6.2-37.1-8.8-74.7-13.9-112-.7-5.4-5.4-12.3-10.2-14.7-21.9-11-31.9-28-28.2-51.9 8.4-54.7 17.1-109.4 25.1-164.2 1.3-8.8 4.1-12.4 13.1-14.7 12.4-3.1 24.2-8.9 35.7-14.7 3.7-1.8 6.8-6.6 8.4-10.7 23.9-61.2 52.8-119.8 87.3-176 12.6-20.5 15.4-46.9 24-70.1 2.7-7.4 8.3-15.9 14.9-19 4.6-2.1 13.2 3.8 19.8 6.1zM1780.9 1387c11.3 2.3 22.7 4.7 34 7 .3-1.7.7-3.4 1-5.1-9.3-10.3-21.9-8-34-7.2-.3 0-.4 3.7-.6 5.6-9.6-4.4-19.1-8.9-31.7-14.7 4.1 7.4 6.1 16.4 10.4 17.7 6.1 2 13.9-1.9 20.9-3.3zm-287.3-190.6c-11.1-3.6-22.1-7.1-33.2-10.7-.9 2-1.8 4-2.6 6 15.7 7.9 31.4 15.9 47.1 23.8.8-1.2 1.7-2.5 2.5-3.7-4.8-5.3-9.5-10.6-14.3-16 3.9.5 7.9 1 11.8 1.5 1.1-15.5 1.1-15.5-18.1-18.9 2.6 6.9 4.7 12.4 6.8 18zm836 258c-8.3 1.4-16.9 1.9-24.9 4.4-3.1 1-4.9 6.3-7.3 9.6 4.2 1.5 8.5 4.5 12.5 4.1 7.7-1 15.1-3.9 22.7-6-4.4 3.1-9.4 5.5-12.8 9.4-1.7 2-.2 6.6-.2 10.1-30.2-8.3-49.3 17-76.9 21.6 4.4 4.9 6.1 6.8 8.5 9.5-9.6-1.1-17.3-1.9-25-2.7-.2 2.4-.5 4.9-.7 7.3 9.3.5 19.9 4 27.8.8 22.2-8.9 43.3-20.4 64.7-31.2 1.1-.5.8-3.8 1.1-5.7 14.8 3.2 27.2 1.1 36.3-16.8-9.2-.8-16.3-1.3-23.4-1.9l-3-13.2c7.7 1 15.3 2 23 3 2.2 3.8 3.6 10 6.6 10.9 4.4 1.3 11.3.4 14.9-2.4 9.4-7.4 16.8-17.1 29.5-20.3 5.4-1.4 9.7-7 14.5-10.7-.8-.8-1.5-1.7-2.3-2.5-18.4 8.1-36.8 16.2-55.2 24.4l9.6-13.5c41.3-12.8 81.8-27 114.1-64.7h-15.5c17.3-18.8 34.5-37.6 51.6-56.3 16-8.2 25.2-22 34.3-39.7-22.2 3.5-28.7 19.8-38 32.9-.7 1 2.8 4.9 4.3 7.5-7.5-1.5-12.9-3-20 5.4-17.8 21-37.2 41.1-58.5 58.4-20.2 16.4-43.6 28.7-65.5 43.1-4.6 3-13.9 4.6-6.9 13.6-14.2-7.7-33.5-2-39.9 11.6zM1297.3 709.5c3.6 7.4 7.1 14.8 10.7 22.2-3.4-2.1-6.9-4.1-10.5-6.2-9.9 26.6-6.1 42 11.7 51.8 11.6-15.5 3.1-30.5-1.5-45.7 2.2 3.5 4.4 6.9 8.4 13.1 7.3-21.2-3.3-30.7-11.7-41.3-2.8 2.4-5 4.4-7.3 6.3-2.5-13.5-5-26.9-7.5-40.4 4.1 4.6 8.2 9.2 14.1 15.8 1-15.9 17.3-26.7 4-42.7-9.5-11.4-17-24.6-25.3-37-1.1-8.9-2.3-17.8-3.4-26.8-1.9.3-3.9.6-5.8.8.5 14.1-15.3 27.6.4 43.2 2.4-3.8 4.5-7.1 6.7-10.5-4.2 20.5-.2 39.5 9.9 57.5-4.7-6.2-9.3-12.5-14-18.7-1.9 1.5-3.8 2.9-5.7 4.4l8.4 24.9c-4.8-3.2-9.6-6.4-14.5-9.4-2-8.3-3.9-16.6-5.9-24.8-12.6 25.2-12.5 33.8-3.2 43.5 3.1-6.3 6.3-12.7 9.5-19.2-8.3 28.3-2.1 52.7 19.3 73.6 9.9-16.9 13.2-32.8-.7-48.8-2.6-3-2.9-7.9-4.3-11.9 6 8.8 12.1 17.6 18.2 26.3zm640.3 725.4c2.6-2.8 5.2-5.5 9.7-10.3h-30.8c.1 17.7 14.5 6.5 21.6 9.8-4.2 2.8-8.3 5.6-12.5 8.3 10.1 15.7 10.1 15.7 40.2 6-4.2-15.5-16.6-13.8-28.2-13.8zm175.2 83.5c3 1.1 5.8 2.7 8.9 3.4 12.6 2.7 26.5-5.9 27.2-16.4 5.4 1.8 10.8 3.7 16.1 5.5l-30.3 21c.2 1.9.3 3.8.5 5.7 11.5.5 22.9 1.1 38.2 1.8-4.3-8.2-6-11.5-6-11.5 12.8-2.2 26.1-4.6 39.3-6.9 0-2.3 0-4.6-.1-6.8-5.7-2-11.4-5.6-17.1-5.8-8.3-.3-16.6 1.9-24.9 3.1 14.2-6.8 28.4-13.6 42.6-20.3-.6-1.1-2.1-3.8-3.5-6.5 17.1 13.3 28-3.9 42.7-6-8-12.2-16-18.1-29.8-11.6-13.8 6.4-28.3 11.4-42.5 17-8.9 3.6-17.9 6.9-26.6 11.1-2.3 1.1-3.2 4.9-4.8 7.5-12 1.3-24.1 2.5-38.8 4.1 5 6.5 7.3 9.4 9.5 12.3-13.6-7.2-27-7.9-43.2 2.7 7.7 3.5 13 7.6 18.7 8.1 9.5.6 22.2 5.5 23.9-11.5zm-94.1 28.5c16.6 6.6 31.8 5 45.2-7 .1-1.9.1-3.8.2-5.7-15.9-1-31.8-2.1-50.1-3.2 2.8 8.7 4.1 12.6 5.4 16.5-9.1-.5-14.5-18.2-27.5-4.3 4.1 4.8 8.3 9.8 12.5 14.8-20-14.2-41.7-12.1-64.6-8.6-27 4.1-52.2 16.3-82.4 5.2-23.8-8.8-52.2-5.3-79.8-7.3 16.7 12.1 35.2 13.2 53.9 13.7 5.7.1 11.5.9 17.1 2.1 20.2 4.1 40.5 12.1 60.6 11.5 10.8-.3 13.9 3.6 21.2 7.7 9.3 5.2 22.7 5.6 33.9 4.5 10-1 19.2-7.9 29.2-10.4 14-3.5 28.5-5.2 42.8-7.7-28.5-15.1-53.1 12.6-85.5 6.7 10.7-3 16.9-4.4 22.8-6.4 10.2-3.6 20.3-7.5 30.3-11.4 6.4-1.4 20.1 7.3 14.8-10.7zm243.2-59.2c-14.6-7.8-26.2.4-38.5 6.5 1.7 3.4 2.9 6 3.5 7.2-8.3-.4-16.6-.8-25-1.3 12.7 14.8 52.7 5.6 60.9-10 .2-.4-.1-1-.2-1.6 11.7-2.6 23.3-5.3 36.9-8.3-10.5-12-14.5-13.9-23.9-8.7-6.1 3.3-18.6 3.1-13.7 16.2zm-331.9-82.9c-10.3-18.7-25.4-18.8-47.7-8.2 11.2 3.7 18.4 6.1 25.7 8.5-2.2 1.6-5.4 3.8-9.1 6.4 13.1 8.9 30.3 6.3 33.7-3.9 4.8.3 9.6.5 18.2 1-9-10.2-15.2-17.1-21.4-24.1-1.3.9-2.6 1.7-3.9 2.6l4.5 17.7zm-33 49.3c-17.4-5.4-32.6 2.3-53.7 7 8 6.1 12.2 12 16.1 11.8 11.6-.5 23.3-2.9 34.6-5.9 2.5-.7 3.5-7 5.2-10.7 9.5 1.7 19 3.3 28.5 5-10.5-21.3-21.1-22.2-30.7-7.2zm370-38.2c-4.8 4.5-9.6 9-14.2 13.5 3.3 4 6.6 8 9.7 11.9 9.7-4.8 17.7-8.8 25.7-12.7v-6c-7.3-2-14.5-4.1-21.8-6.1-2.3-16.4-7.1-19.2-20-11.9-13.3 7.6-26.6 15.1-39.9 22.7 8.9 15.6 10 15.6 23.9 7.6 12-6.9 24.4-12.7 36.6-19zm-935.9-643.6c-3.4-2.7-6.8-5.4-10.5-8.3-7.1 26.3 2.7 49 26.2 61.6 5-21.5 4.9-21.4-7.8-39-3.3-4.6-5.7-9.9-8.4-14.9 6.3 5.9 12.6 11.8 20.3 18.9 2.8-24.5-10.2-38-29.5-48.6 3.2 10.1 6.5 20.2 9.7 30.3zm70.7 335.4c12.3 5.7 24.5 11.4 39.5 18.3-2-8.8-1.3-17.5-5-20.3-15.4-11.5-32.1-21.1-48.3-31.5-1.6 1.3-3.2 2.6-4.8 3.8 6.4 10.1 12.8 20.1 19.2 30.2-3.7-1-7.5-1.9-11.2-2.9-1 1.1-1.9 2.2-2.9 3.3 3.2 3.6 5.9 7.7 9.6 10.6 8.2 6.5 16.8 12.4 25.2 18.6-14.5-7.5-29.1-15-44.3-22.8-.8.9-2.6 3.2-5.7 6.9-3.5-20.7-16.7-29.8-36-32.9 9.1 10.8 18.3 21.6 27.4 32.4-3.1.6-6.3 1.1-12.3 2.3 14.1 12.6 25.7 23 37.4 33.4-17.1-8.8-34.2-17.5-51.3-26.3-.9 1.1-1.8 2.2-2.7 3.2 10.6 8.4 20.6 17.5 31.8 24.9 15.7 10.2 32.5 18.7 48.5 28.5 22.4 13.7 44.2 28.5 66.8 41.9 9.2 5.5 19.9 8.5 31.5 13.2-3.4-21.4-36.1-41-51.1-37.2-9.8-6.7-17.1-11.9-24.6-16.8-16.5-10.8-33-21.4-49.6-32.1 19.9 9.6 39.7 19.2 59.6 28.9.9-1.5 1.7-3 2.6-4.6-9.1-6-18.1-12.2-27.3-18.1-15.6-10.1-31.3-20-46.9-30 22.2 11 44.3 22 66.5 33 1-1.1 1.9-2.2 2.9-3.3-6.2-7.4-12.5-14.8-18.7-22.2 4.5-1 9-1.9 13.4-2.9-3.5-3-6.9-6.3-10.6-9-9.3-6.8-19-13.6-28.6-20.5zm215 241c-1.4.1-3.9.7-4.2.1-11.4-20.5-31.4-20.9-52-20.5 3.9 2.6 7.8 5.3 11.8 7.9-.3.5-.6.9-.8 1.4-9.8-2.9-19.7-5.8-29.5-8.7.7 6.1 3 10.7 6.4 11.8 8.5 2.6 17.6 3.1 26.2 5.3 8 2.1 15.5 7.3 23.4 7.5 5.8.1 16.5 10.2 18.7-4.9 15.9 15.9 49.9 22.9 68.6 11.6-22.9-5.4-43.3-10.3-63.7-14.9-1.4-.4-3.3 2.2-4.9 3.4zm102.9-1.1c5.8 4.5 11.7 9.1 18.9 14.8.4-7.8.6-12.2.8-16.6 5.6 10.3 8.8 22.3 24.8 22 11.8-.2 23.7 2.4 36.8 3.9-1.9-6.2-2.8-9.1-3.7-12l2.7-.9c2.9 4.7 5.8 9.4 9.2 14.8 5.5-2.1 11-4.2 12.8-4.9 14.5 3.8 26.7 7 38.8 10.2l2.4-4.5c-8.5-13.3-17.1-26.5-25.6-39.8l1-.9c3.6 3.9 7.3 7.7 10.7 11.7 13.1 15.2 20.7 38.5 48.2 32.4.1 0 .5 1.8 1 3.3-6.1.7-12.2 1.4-18.2 2.1.2.8.3 1.5.5 2.3h29.7c-7.7-12.5-14.2-23.1-20.6-33.6.5-.3 1.1-.7 1.6-1 4.7 4 9.3 8 14.7 12.5 1.9-3.5 3.3-6 5.3-9.8 9.8 11.9 19.9 22.5 28 34.4 10.3 15 22.8 23.8 41.7 21.2l-.5-.4c-4 3-7.9 5.9-11.9 8.9.5 1 1 2 1.4 3 20.3-6.3 40.5-12.5 66.5-20.5-21-21.1-36.7-43.6-58-57-65.5-40.9-126.4-87.4-184.3-138.2-3.9-3.4-6.4-8.3-9.6-12.4 5.1 3.8 10.4 7.5 15.4 11.5 41.4 32.4 82.5 65.1 124.3 97 15 11.4 31.7 20.7 47.6 31 .8-.9 1.5-1.7 2.3-2.6-6.6-9.6-13.3-19.1-19.9-28.7 7.6 4.4 12.6 10.6 17.7 16.6 12.4 14.4 18.8 35.9 43.1 36.4 1.3 0 2.5 2.8 5 5.8-5.4 1.2-9 2-13.6 3 11.5 12.7 21.8 24.1 33.2 36.7 7.4-4.1 15.1-8.4 23.4-13-8.1-10.1-15.1-18.7-24-29.7 10.5 6.9 17.7 11.7 24.9 16.5 5.5 20.8 17.6 7.3 27.2 7.1.5-1.4 1.1-2.8 1.6-4.2-5.6-2.7-11.2-5.3-16.8-8-2.8-5.8-6-11.5-8-17.5-.6-1.7 2.3-4.6 3.6-6.9 12.2 30.2 29.1 36.3 67.2 23.2-6.2-6.6-11.1-15.7-18.2-17.9-6.3-2-15 3.7-22 5.8 5.7-6.7 11.2-13.2 16.7-19.7 2.2 0 4.5.1 6.7.1 14.1 26.7 34.5 44.4 66.3 45.6.3-2.4.5-4.6 1.1-9.9 10.8 14.4 19.9 26.7 30.5 40.9 8.8-4.4 18.5-9.3 30.3-15.2-17.8-19.4-33.6-37.2-50.4-54.1-2.2-2.3-9.7-1.1-13.8.7-9.1 3.9-17.6 9.2-26.3 14-.5-1-1-2-1.5-2.9 11.1-6.8 22.2-13.7 36.3-22.4-11-8-19.1-13.9-27.3-19.8-2.3-7.1-4.6-14.2-8-24.5 6.4 7.7 10.8 13.1 14.9 18.1 5.8-2.8 10.5-5.1 15.1-7.3.5 1.1 1 2.3 1.6 3.4-4.3 2.4-8.6 4.7-19.2 10.6 29.6 29 57 55.8 83.7 82 16.6-11.5 28.9-19.9 41.1-28.4.7 1 1.5 2.1 2.2 3.1-11.5 9.3-23.1 18.6-34.7 28 6.5 12.1 13.3 11.1 22.1 3.9 6.6-5.5 14.4-9.5 21.6-14.1 1.3 1.9 2.6 3.7 3.8 5.6-10.3 6.4-20.7 12.8-31 19.2.7 1.3 1.5 2.7 2.2 4 3.9-1.4 7.9-2.8 12.3-4.4-1.5 5.1-2.6 8.9-3.8 12.7 1.3 1.1 2.6 2.1 4 3.2 39.7-33 95-41.6 129.3-86.4-6.5 1-11.6 1.7-16 2.4-.5-4-1-7.7-1.9-14.1 7.7 2.6 14.1 4.8 24.5 8.4 15.7-17.1 33.5-36.4 51.3-55.6-1.6-2-3.2-4.1-4.8-6.1-7.7 4.2-16.2 7.3-22.9 12.8-6.4 5.2-10.8 12.8-16.1 19.4-.9-.7-1.9-1.5-2.8-2.2 4.4-6.9 8.8-13.7 13.3-20.6-.8-1.3-1.6-2.5-2.4-3.8-5.7 2.5-11.3 4.9-20.1 8.8-4-.9-12.4-2.9-22.6-5.2 3.3-1 4.7-1.9 6.1-1.8 28.7 1.4 54.5-2.2 66.6-33.8 1-2.7 6.4-5.8 9.3-5.5 29.2 3.5 36.8-2.4 38.4-32.4-5.5 1.8-10.7 2.9-15.3 5.1-16.9 8.1-33 18.7-50.7 24.4-18 5.8-37.6 9.4-56.5 9.5-22.7.2-45.4-4.3-68.1-6.7-9.6-1-19.3-1.9-29-2.9 22.1-4.1 44.1-4.8 65.9-6.8 21.6-1.9 43.1-5.1 64.6-7.8-.1-1.5-.3-2.9-.4-4.4-24 0-48.5 3.1-72-.6-55.1-8.6-98-37.1-123.7-88-2.4-4.7-1-11.2-1.4-16.9 8.9 10.6 12 23.3 20 30.2 8.8 7.6 17.4 14.4 25.5 23.3 19.6 21.5 45.5 34.1 74.7 38.1 7.9 1.1 18.7 3.7 23.5-.1 13.7-11.1 29.7-7.4 44.5-10.9 15.1-3.6 30.8-6 45-11.9 29.1-12.1 45-34.9 48.6-66.3-4.4-1.3-7.8-2.3-9.6-2.8 6.3-4.6 16.4-8.1 17.6-13.5 5.9-27.2 9.9-54.8 13.4-82.5.6-4.5-4.8-9.8-7.5-14.7 1.5-5 2-11.2 0-16.4-18.8-48.3-79.1-88.8-131.5-89.2-5.7 0-12.3-.7-17.1-3.5-16.7-9.6-32.9-7.4-49.4 0-7.2 3.2-14.7 5.7-24 9.3 1.9-5.5 2.9-8.3 4.2-12.2-87.5 35.8-123.9 84.2-106.2 139.6 6.3 1.3 12.5 2.5 21.6 4.3-16.8 10.5-21.3 9.9-39.8-4.4 3.1 20.8 5.8 38.7 8.5 56.6 1.3-.2 2.7-.4 4-.6v-15.9c10.4 24.3 20.6 48.2 30.8 72-2.5 1.3-4.9 2.7-7.4 4-9.1-12.8-21-24.4-26.8-38.5-23.5-56.6-17-111.6 14.6-163.5 5.1-8.3 13.6-15 21.8-20.7 10.5-7.4 23-12 33.2-19.7 72.5-54.3 201-32.7 257.8 51.3 7.8 11.5 14.7 23.5 20.6 32.9 6.8.5 15.2.4 15.4 1.4 2.5 18.6 5.5 37.3 5.2 56-.2 10.8-6.1 21.4-9.9 33.6 39.1-4.2 53.8-11 70.2-30.9-.1 3-.3 6-.5 9.6 20.8-8.9 47.1-10.4 44.7-42.4h-18.8c.3-1 .5-3 .7-2.9 12.8.6 22.4-3.9 25.4-17.3 2.5-11.4 4.3-23.1 5.8-34.7.2-1.4-3.7-3.4-4.1-3.7 5.1-8.7 9.8-16.8 14.5-24.8 2.8 13.8-1.8 26.2-6.4 39-3.3 9-2.7 19.3-3.8 29.1l5.4.6c14.7-26.2 21-54.2 19.2-84.9-2.8.5-4.3.3-4.6.9-3.5 5.2-6.8 10.6-10.2 15.9-2.3-2.3-5.7-6.9-6.8-6.4-10.5 4.7-26.8 8.1-29.8 16.1-9 24.1-12.8 50.1-19.3 78.4 7-2.8 10.8-4.3 14.5-5.7-2.3 2.6-4.5 5.2-6.9 7.6-4.2 4.1-9.1 7.6-12.6 12.2-3.1 4-4.6 9.2-6.8 13.9-.7-7.6-1.3-15.1-2.1-24.5.2-.1 4-1.8 8.2-3.7-3.2-2-5-3.2-7.1-4.5 19.1-20.4 28-65.8 18.2-71.1 4-7.3 9.8-14 11.5-21.6 4.5-19.9 7.3-40.2 10.6-60.3 4.6-28.2 9.1-56.4 13.6-84.7l5.4.9c-8.1 50.4-16.2 100.8-24.3 151.5 29.9-7.6 35.2-12.7 37.7-41 5.4-62.7 10.1-125.4 15.3-188.1.5-5.6 2-11 3.7-19.9v108.9c1.6.6 3.2 1.1 4.8 1.7 2.7-5.3 7.9-10.7 7.6-15.8-1.9-41.3-1.7-83.1-8.4-123.6-6.1-36.8-20.2-72.3-30.8-108.4.6-.3 1.2-.7 1.8-1 10.1 25.9 20.2 51.9 30.4 77.8 1.3-.4 2.6-.8 4-1.2-7.6-29.9-11.8-61.2-23.7-89.2-18-42.3-40.6-82.7-62.8-123-6.8-12.3-18.8-21.7-28.3-32.6-5-5.8-9.5-12.1-14.3-18.1-10.2-12.5-20.5-24.9-30.7-37.4-1.4 1.1-2.7 2.1-4.1 3.2 10.8 19.1 21.5 38.2 32.9 58.4 1.7-3.9 2.6-6 4.6-10.4 16.1 32 29.4 62.7 46.6 91.1 14.3 23.8 14 51.2 24.6 75.6.3.7-.5 2-1.7 5.8-3.7-10-6.5-17.8-9.3-25.6-21.2-59.3-57.4-110.5-89.5-163.9-8.2-13.6-18.6-15.7-35.1-6.2 3.3 3.7 6.4 7.2 10.5 11.8-7.5-2-13.8-6-18.6-4.7-28.8 8.3-44.6-11.6-62.4-27.3-17.8-15.7-34.9-31.4-29.4-59.1 2.4-12.5 3.1-25.5 3.3-38.3.1-5.2-1.8-12.4-5.5-15.4-12.3-10-25.8-18.5-38.9-27.6 1.9-1.1 3.6-2.1 6.2-3.6-8.5-4.1-15.4-7.5-22.4-10.9.4-1.1.9-2.2 1.3-3.2 5.9 2.1 11.8 4.2 19.4 7-18.2-25.5-27.2-30.4-57.9-33.2-2.5-.2-5.2-1.6-7.3-3.1-37.7-25.9-80-41.3-123.7-53.3-7.3-2-14.9-3.1-22.3-4.7-.2.9-.4 1.9-.7 2.8 15.7 5.6 31.4 11.2 47.2 16.8-12.8.1-25.2-1.1-37-4.4-7.4-2.1-17.9-5.6-20.3-11.2-5.5-13.2-15.7-14.4-26.6-16.4-12.2-2.3-24.2-5.8-36.5-6.5-63.3-3.6-126.6-6.8-190-9.3-10.5-.4-21.1 3.2-31.7 5-22.3 3.8-44.8 11.3-66.9 10.4-28.6-1.2-54.3 4.3-79.5 16.2-15.8 7.5-31.7 14.7-48.3 22.4-.4-4.6-.6-6.9-.9-10.7-31.3 18.5-65.4 30-88.7 59.4 22.3-5.2 43.5-13.1 64.9-20.5 6.8-2.4 14.1-4.9 21.2-5.1 25.6-.7 51.3-.5 76.9-.4 2.5 0 5.1 1.1 7.4 2.2 14 6.7 28.4 12.9 41.8 20.6 9.5 5.5 17.8 13.2 27.1 20.3-31.1 8.2-32.3 37.9-48.5 55.4-9.9-27.6 19.1-41.7 16.8-66.8-8.5-4-18-8.4-27.4-12.7-.6 1.2-1.1 2.3-1.7 3.5 5.9 3.2 11.8 6.4 20 10.9-8.6 10.9-16.1 20.3-23.6 29.8 4.5-9.5 8.9-19 13.9-29.5-4.6-1.4-8.3-2.5-10-3-13.9 22.7-26.8 43.9-39.8 65.1.5.4 1.1.9 1.6 1.3 7-6.4 14-12.8 21-19.1-3.2 4.8-5.5 10.6-9.7 14.1-39.2 32.6-77.8 65.9-118.6 96.3-12.9 9.6-31.8 14.8-48.2 15.3-24.4.8-49.2-2.9-73.3-7.4-12.2-2.3-17.2 1.5-20.1 11.5-3.1 10.8-4.9 22.1-8.8 32.6-3.2 8.5-8.7 16.2-13.2 24.2-1.2-.7-2.4-1.3-3.6-2 4.9-37.7 9.7-75.5 14.7-114.1-3.6 3-6.1 5.1-8.6 7.2-1.4-1.1-2.9-2.3-4.3-3.4 10.8-16.3 19.7-34.4 32.8-48.4 20.9-22.3 44.6-42 67.2-62.6 10.9-9.9 22.1-19.5 33.2-29.2l-4.2-4.5c-2.1 1.2-4.3 2.2-6.4 3.5-24 15.2-48.4 30.1-72 45.9-22.8 15.3-35.6 42-61 54.8-2.2 1.1-2.2 8.7-1.5 13 1.6 10.3 4.2 20.5 6.4 30.7-.7.1-1.5.2-2.2.3-3.4-9.5-6.8-18.9-10.3-28.4l-6.3 1.8c5.2 24.6 10.4 49.2 15.6 73.7-11.1-18-8.3-41.7-27.5-58.2-1 6.5-1.8 10.9-2.8 17.5-1.9-6.1-3.2-10.2-3.9-12.6-37.6 13-47.8 44.5-53.3 73.8-6.2 3.3-11 4.3-12.4 6.9-4.6 8.9-6.4 19.6-12.1 27.5-14.7 19.9-28.7 39.6-27.7 65.9.1 2.1-1.8 4.3-3.4 7.9-1.5-4.6-2.4-7.4-3.3-10.2l-3.9-.6c-4.3 17.2-4.4 37.4-14 50.8-10.4 14.5-14.2 30.6-20.8 45.8-3.9 9-2.5 20.3-3.5 30.5 1.6.1 3.1.1 4.7.2 5.3-9.4 10.6-18.7 16-28.1l-.3-.3c-15.6 31.9-10.7 61.4 10.2 89.3 6.5 8.7 6.4 17.7 1.9 28.4-3.9 9.2-4.4 20.5-3.9 30.7.4 7.1 16 9 20.9 3.1-2.4 31.2-2.4 31.2 18.1 51.2 2.2-1.9 4.4-3.8 7.7-6.6.9 10.6 5.6 24.8 1.5 28.1-8.9 7.1-5 13.1-3.4 19.6 4.2 17.5 15.6 29.7 30.9 40.5 3.1-22.2 5.9-42.9 8.8-63.6 1.4.2 2.8.4 4.1.6-3.4 29.8-7 59.6-9.9 89.5-.5 4.8.3 11.7 3.3 14.4 11.7 10.4 24.6 19.4 39.9 31.1 1.5-18.6 2.6-32.8 3.8-47.7 2.7 1.5 5.2 2.8 6 3.2 8.5-10.7 15.1-22 24.5-30.3 25.1-22.3 56.3-24.6 88-22.5 11.4.8 24.8 19.3 24.4 30.8-11.8-6.4-23.5-12.9-35.8-19.7-1.9 6.3-3 9.9-4.2 14-19-17.6-32.9-18.6-51.3-1.2-12 11.3-35 17.5-25 43.8-4.4-2.5-7.8-4.3-11.3-6.2-10.6 40.8-6.1 71.1 27.8 74.4-2.6-12.9-1-29.5-8.2-35.3-8.8-7.2-9-15.1-6.3-20 5.8-10.8 14.6-20.3 23.2-29.4 6.3-6.8 14.2-12.1 20.2-17.2-.1-.4.5 3.2 2 12.2 7.5-10 12.2-16.2 16.7-22.1 2 2.2 4.2 7 7.5 7.9 16.9 4.7 34.2 8.1 51.1 12.8 5.5 1.5 11.4 4.6 15 8.9 8 9.5 14.7 20.2 21.9 30.4 0-31-15.8-53.1-36.1-73.1 17.2 5 28.4 17 35.2 32.3 7.4 16.6 12.3 34.3 19 51.3 2.7 6.8 5.9 13.9 10.8 19.2 28.7 31.4 57.9 62.2 86.9 93.3 2.9 3.1 6.1 6 9.2 8.9 19.4 18.2 38.8 36.5 58.2 54.7l-5.7 5.7c-59.5-59.6-118.9-119.1-175.9-176.3-3.8 9.9-8.8 23.2-15.3 40.1 45.3 46.3 93.7 95.7 142.1 145.1l-2.5 2.5c-43.9-42.6-87.8-85.3-132.7-128.8-4.1 10.9-6.4 19.9-10.6 27.7-5.4 10-5 17 4.3 24.8 13.1 11.1 24.8 23.8 37.1 35.9 37.5 37 74.9 74 112.4 111-16-13.2-32-26.5-47.5-39.3-3.1 2.3-5.9 4.4-8.6 6.5-1.8-7.7-1.1-17.8-5.8-22.6-27.8-28.4-57.2-55.3-85.4-83.3-8.1-8-15.1-10.3-25.9-2.3 14.6 15 28.4 29.8 43 43.9 20.3 19.6 41.1 38.7 61.7 58-4-2.5-8.5-4.4-11.9-7.6-29.6-27.3-58.8-55-88.7-81.9-4.5-4.1-17.1-7.4-17.4-6.8-6.9 13.6-21.2 4.7-30.4 10.6-3.8 2.5-8.7 3.3-12.6 4.6 7.8 5.3 13.3 11 20.1 13.1 5.4 1.7 12.1-.9 19.4-1.7-4.6 19.3 15.3 15.3 28.6 19-.4 1.3-.8 2.7-1.2 4-8-.7-16-1.4-24.4-2.2-4 13 .4 23.4 8.8 33.8 8.7 10.8 15.7 23.1 23.4 34.7-1 .6-2 1.1-3 1.7-8.6-4.7-17.1-9.3-26.5-14.4-3 17.2-4 30.8 16.8 32.6 2.3.2 4.8 2.3 6.6 4.1 8.6 8.9 16.9 18 24 25.5-4.2-1.1-10.8-2.8-17.5-4.5-3.6 18.6 7 26.3 39.4 28.9v-26.1c3.3 6.2 4.8 9 4.8 9 20.2-7.6 38.8-15.1 57.8-21.5 10.4-3.5 20.1-2.3 25.8 9.5 2.3 4.8 5.6 9.3 9.3 13.1 12.2 12.4 17.3 24.8.8 37 6.5 5.4 11.9 9.9 17.4 14.4-.6.6-1.1 1.2-1.7 1.8-5.3-3.2-10.6-6.4-17.4-10.4-2.8 8.8-5 15.7-7.5 23.6 12.1 2.9 22.9 5.5 33.7 8.1-.2.8-.4 1.7-.6 2.5-12.5-2.4-25.1-4.8-38.1-7.3-.6 16.8 2 27.2 18.6 29.3 9.3 1.2 18.1 6 27.1 9.2-.2.6-.4 1.3-.5 1.9-12.7-3-25.4-5.9-38.7-9-1.4 11.2 1.7 15.4 11.8 15.8 16.1.7 32.2 2.5 48.1 4.8 4.3.6 8.1 4.7 12.1 7.2l-1.8 2.7c-5.8-2.2-11.6-4.5-19.1-7.4 1.7 6.2 2.6 9.2 3.4 12.2-13.3-18.5-32.3-11.3-50.1-14.9.5 6.7.8 11.3 1 15.9-6.4-11.8-12.3-24.5-30.5-19.8 3.8 6.5 7.1 12.3 10.5 18.2l-62.1-38.7-4.8 4.5c3 6.9 4.1 17.4 9.2 20.2 16.7 9 34.8 15.2 52.6 22 1.2.2 3.7-3.2 5.4-4.9zm383.8 74.2c4.5.7 10 3.5 13.4 1.9 14.2-6.9 27.7-15.1 41.9-23-7.4-13.6-18.2-13.7-29.1-8.7-10.7 4.8-20.5 11.6-31.3 17.8 1.9 4.1 3.7 8.3 5.6 12.5-13.3-10.7-26.1-8.1-43 3.5 9.7 5.4 17.4 13.1 24.6 12.7 6.9-.5 19.9-2.7 17.9-16.7zm-773-437.8c14.8 12 29.7 24 44.5 35.9 1.2-.6 2.5-1.2 3.7-1.7-2.3-8.8-2.2-19.3-7.3-25.9-9.5-12.3-22-22.3-33.3-33.3 4.7.4 9.5.9 10.2 1 9.9 10.5 17.5 18.6 26 27.7 10.7-24.7 7.9-46-12-56.7-13.4-7.2-16.9-19.2-25.5-28.4 12.5 9.6 25 19.2 37.6 28.8 1.1-1.1 2.2-2.3 3.2-3.4-19-19.7-38-39.5-57-59.2-1.1.8-2.2 1.6-3.3 2.5 6.5 10.5 13 21 19.6 31.4-7.5-7-15-13.9-25.6-23.8 1.2 9.8 0 17.2 2.9 19.6 19.4 16.1 16.7 40.6 24.5 61-13.4 3.1-10.8 13.6-10.5 23-5.5-3.1-11-6.3-16.5-9.4-1.3 1.8-2.6 3.7-3.9 5.5 13 10.6 25.9 21.1 38.9 31.7.9-1.1 1.7-2.2 2.6-3.3-6.2-7.7-12.5-15.4-18.8-23zm758.9 472.7c10.6 6.4 20.6 10.3 32.9 2.3 9.7-6.3 21-10.1 32.6-15.4-19-22-26.4-23.6-37.4-11.2 4.7 5 9.5 9.9 14.2 14.9l-2.1 5.1c-13.3-22.3-28.4-19.1-44.1-6.5 1.5 3.8 3 7.6 4.6 11.5-14.2-14.6-25.4-1-38.4 3.1 13.6 15.3 27.6 17.4 44.2 7.2-2.2-3.7-4.3-7.4-6.5-11zM1338 1031.3c-8.1-4.4-16.2-8.9-25-13.7 4.2 41.5 40.6 51.5 68.7 71.4 2.6-15.1-1.9-26.8-14.2-30.6-15.3-4.7-22.6-15.6-30-27.6 13.4 8.4 26.9 16.8 40.3 25.2.9-1.2 1.9-2.4 2.8-3.6-24.2-21.4-48.4-42.9-72.6-64.3-.1 7.1 1.8 12.7 5.3 16.8 7.8 9.1 16.4 17.6 24.7 26.4zm174.7 68.2c-3-.5-6.1-.9-10.8-1.7 1.5 8.7 2.8 16.3 4.5 25.8-8.2-5.3-15.4-9.9-23.7-15.3-1.1 15.1 5 21 17 22.2 2.1.2 4.1 1.5 6 2.7 12.7 7.8 25.3 15.7 40.9 25.5-.5-22.1 1.7-39.8-19.3-48.5-5.6-2.3-10-7.3-15.1-11.1 9.8 4.1 19.7 8.3 29.8 12.6 2.3-21.5-26.2-51.5-40.8-47.3-7.1-7.9-13.6-15.1-22.8-25.4-2.3 20.2-2 35.7 12.2 42.3 9.8 4.3 14.9 12 22.1 18.2zm436.7 406.7c-12.3-1.5-25.9-7-36.8-3.7-26 7.8-52.4 11-79 14.6-7.4 1-14.1 7.3-21.1 11.1-13.2-14.5-29.9-4.5-44.9-6.1-2.7-.3-6 5.8-12.7 12.8 24.5 2.1 43.5 3.8 65 5.7-4.2-6.8-6.1-9.9-8-12.9 19.3-.2 39.2 2.4 57.5-1.8 11.7-2.7 22.3-.3 33-1.8 16.6-2.3 35.1-1.9 46.4-18.4l21.6 5.4c-5.2-16.5-12.5-25.3-27.7-13.9 2.4 3.2 4.6 6.1 6.7 9zm-321.8-236.1h-17.8v16.9c38.6 11.9 77.6 23.9 120.1 37-6-28.5-31-19.9-43.5-36.5 1.2 8.5 1.7 11.8 1.7 11.9-8.1-4.4-16.3-10.9-25.6-13.4-11.1-3-22.4-4-28.9-15.1 4 .6 8 1.3 12.8 2.1v-15.7c-12.8-3.8-25.2-7.5-37.7-11.2-1.1 1-2.2 2.1-3.4 3.1 2.3 4.4 3.6 9.9 7 13 4.1 3.7 10.1 5.3 15.3 7.9zM2558 1164c-.8 3.5-1.6 7.1-2.6 11.3 21.1 1.2 35.6-7.6 44.1-26 6.6-14.5 12.5-29.3 18.6-44 1.5-3.6 2.5-7.4 3.9-11.7-22.8 2.5-39.6 15.6-43.1 33.8-.7 3.6 2.9 8.1 3.4 9.5-8.3 9.3-16.5 18.5-24.7 27.7 1.6-7.6 1.6-16 5-22.7 6.4-12.7 14.7-24.3 24.4-39.9-11.5 2.5-16.8 3.6-22.2 4.8 11.8-7 24.7-9.7 37.1-13.7 13.7-4.4 31.9-5 29.1-28.9-4.2 3.7-7.2 8.3-11.1 9.5-15.6 4.7-31.8 7.6-47.2 12.9-5.9 2-11.8 7.8-14.9 13.4-13.2 23.6-7.6 53.5-24.6 76.1-.8 1.1.4 3.8 1.2 9 9-8.1 16.2-14.6 23.6-21.1zm-224.6 252.9c4.7-1.3 9.5-2.6 14.5-3.9-1.5 14 7.7 20 21 11.6 25.5-16.2 59.6-22.2 69.4-56-18.4-17.5-32-4.6-45.5 9.7-2.9 3.1-6.7 5.3-10.1 7.9-7.1 5.2-14.6 15.2-21.1 14.6-15.1-1.5-20.7 7.5-27.7 16.7-11.9 1.1-24.6.6-31.5 13.4 15.6 15.2 30.2 15.1 46.8-.9-5.4-4.7-10.6-8.9-15.8-13.1zm138.2-1157.3c-5.5-7.3-11.1-14.6-18.7-24.6-10.2 34.5-3 65.4 15 77.7-.9-5-1.6-9.4-2.9-16.4 11.4 12.3 8.1 35 31.4 32.9-.8-4.5-1.4-8.4-2.8-16.8 17.5 24.3 38.3 22.9 62.7 19.9-12.6-18-23.7-33.7-35.6-50.6-15.4 20.9-29.9 6.2-43.5 3.6-4.3-.8-7.4-8.1-11-12.5 1.1-.8 2.2-1.7 3.3-2.5 3.3 3.5 6.6 7.1 9.9 10.6.7-.5 1.3-.9 2-1.4-3.4-6.8-6.8-13.6-10.3-20.4 3.6-3.4 7.1-6.7 14.3-13.6-4.4 19.3 2.8 28.8 16.5 32.8 4.4 1.3 9.9-1 16.6-1.9-18.3-25.9-40.3-39.8-57.5-38.1 3.4 7.1 7 14.2 10.6 21.3zm-1082.8 945.3c3 .9 6.1 1.8 9.1 2.8 43.7 14.5 78 49.2 124.5 57.8.9.2 1.1 3.1 2.2 3.8 7.5 4.6 15.2 9 24.9 14.7-1.3-17.4-2.2-19-14.7-23.3-17-5.8-32.8-13.8-48.1-23.3-39.8-24.6-79.8-48.8-119.9-72.9-3.5-2.1-8.6-1.5-13.9-2.3-8.1-8-17.5-17.2-26.9-26.5-1.7 1.5-3.5 3-5.2 4.6 6.7 9.2 12.1 19.8 20.3 27.4 13.7 12.6 29.1 23.3 43.9 34.8-9.3-3.5-18.7-6.9-32.2-11.9 7.1 8.7 11.5 14 15.8 19.3-1.1.9-2.1 1.8-3.2 2.7-10.8-13.3-21.6-26.6-32.4-40-1.1.8-2.2 1.5-3.2 2.3 3.5 6.4 6.3 13.3 10.5 19.1 12.7 17.6 26.3 32.7 52.1 25 5.6-1.7 13.5 4.6 20.3 7.3-.4 1-.9 2.1-1.3 3.1-2.9.8-5.7 1.5-8.6 2.3l-.3 3.6 41.4 7.2c-8.6-8.8-18-13.8-27.1-19.4-9.6-5.8-18.7-12.1-28-18.2zm1083 98.8c3.1.8 6.2 1.6 9.3 2.5 23 7.1 29.3 5.1 41.6-15 11.9-19.5 23.4-39.2 34.5-59.1 10.1-17.9 19.5-36.2 30.5-56.6-20.2 1.2-36.4 3.4-46.8 19.7-2.5-3.1-7.1-9.2-7.3-9-8 5.6-15.7 11.8-23.4 17.9l5.4 7.2c8.5-5.6 17.1-11.2 25.6-16.8-2.5 9.4-3.7 19.4-7.9 27.9-7.8 16-14 35.8-27.2 45.4-14.3 10.4-23 23.8-34 36.1-11.9 10.5-23.8 20.9-37.8 33.2 9.4 3.3 13 4.5 19.8 6.9-12.1 1.5-20.5 2.6-32.2 4 20.6 18.7 24.2 19.3 39.9 5.1 11.8-10.7 22.5-22.7 35.1-35.6-9.7-5.5-17.4-9.6-25.1-13.8zm-895.1 49.9c-12.8-2.8-22-4.9-33.2-7.3 3.3 8.5 5.5 14.2 7.7 20-1.1 1.3-2.2 2.6-3.3 3.8-4.1-2.4-9.5-3.8-12-7.3-4.9-6.8-6.2-18.4-12.3-21.6-17-8.9-35.7-14.5-53.8-21.4-.3 4.4.4 5.9 1.5 7 13 13.3 27.1 25.7 38.9 40 10.1 12.1 16.4 27.5 26.6 39.4 8.5 9.9 19.4 21.6 31 24.1 21.3 4.7 44 3.2 66.9 4.3-2.8-23.9-22.8-11.6-34.8-19.7h29.5c-2.1-9.2-3.8-16.9-5.6-24.4-12.3-2.4-23.8-4.7-35.3-6.9 5.8-2.5 11-2.1 16.3-1.8 5.2.3 10.4.6 15.7 1-2.4-20.4-12.8-27.2-35.5-24.4.3 4.3.6 8.7.8 13-.6.1-1.3.2-1.9.4-2.8-7-5.5-13.9-7.2-18.2zm2.7-1055.2c20 8.5 36.9 4.1 53.6-5 10.8-5.9 22.5-10.1 33.5-15.8 46.5-24.3 87.7-54.2 110.9-103.6 4.7-10.1 3.7-15.5-7.4-19.2-42.8-14.2-83.3-5.7-123 11.6 28.1-4.5 56.2-11.5 83.6-.4.6 9.3 1.2 17 1.9 27.5 9.7-7.2 17-12.6 24.2-17.9-15.2 21.1-30.8 40.9-47.6 59.5-10.7 11.8-22.4 23.4-35.6 32.2-7.7 5.2-19.2 4.7-29.1 6.8-.4-1.4-.8-2.9-1.2-4.3-10.5 6.5-12.6 24.2-32.8 23.2 5.6-11.5 10.2-20.9 15.1-30.7-7.7 4.8-14.6 9.1-21.5 13.3-.9-1.1-1.7-2.2-2.6-3.3 14-14.4 28-28.7 42-43.1-2.1-2-4.1-4-6.2-6-9.2 11-17.7 22.7-27.8 32.8-5.2 5.2-14.3 6.4-19.8 11.5-6.2 5.7-10.2 13.6-16.4 22.3h11.7c-2 3.1-3.6 5.6-5.5 8.6zm-192.2 956.9c42.8 26.6 75 69.6 128.8 72.1l2.1-3.9c-8.5-4.3-17.1-8.7-26.1-13.3 3.8-1 6.8-1.8 9.9-2.6.6-1.8 1.3-3.5 1.9-5.3-46.1-25.3-92.3-50.6-139.8-76.6v33.1c7.4 2.6 14.7 5.2 23.1 8.1.1-4.4.1-7.1.1-11.6zm115.3 165c-1.7-4.3-2.8-7.7-4.3-11-16.1-35.8-43.7-62.2-73.2-86.4-17.2-14.2-36.8-25.6-56.1-37-5.1-3-13-1.4-19.6-1.9 64 36.3 115.7 84 120.3 116.7-12.1-5.1-22.9-9.7-33.8-14.4-.6 1.4-1.1 2.7-1.7 4.1 14.2 6.6 28.3 13.3 42.5 19.9-1.1 2-2.1 4-3.2 5.9-17.5-9.2-35.1-18.4-52.6-27.6 23.8 18.5 47.2 38.4 81.7 31.7zM2104.2 41.5c-5.6-11.7-18.6-16.4-31.6-17.9-21.3-2.5-42.8-2.6-64.3-3.7-4.8-.2-11.1 1.7-14.3-.6-21.1-15.3-41.7-3-62.2.6-8.6 1.5-16.4 7.3-22.5 10.1 64.9 3.8 130.1 7.6 194.9 11.5zm-270.1 1375.4c18.9-3.4 35.9-6.5 53-9.6.3-2.2.7-4.5 1-6.7-6.8-2.4-13.6-6.1-20.6-6.6-5.2-.4-10.8 3.5-18.4 6.3-6.7-5.9-16.9-14.7-27.1-23.6-.9 1.1-1.8 2.3-2.6 3.4 2 3.5 4.1 7 6.2 10.5 1.4 2.3 2.8 4.6 4.1 6.9-2.8.4-5.6 1.1-8.4 1-17.1-.7-34.2-1.7-51.2-2.3-2.3-.1-4.7 1.5-7.5 2.5 24.3 24.8 30.9 27.2 39.1 14.4 4 1.6 11 2.6 11.4 4.9 3.9 21.5 18.8 7.7 28.7 9.4.4.1 1.1-1.4 2-2.6-2.9-2.4-5.8-4.7-9.7-7.9zm29.1 74.8c33 24.6 59.1-4.1 89-3.4-13-26.2-14.9-27.1-35.1-19.2.9 3 1.9 6 2.2 7-6.8-1.6-13.3-4.4-19.7-4.4-6.4 0-12.7 3.7-19.2 4.2-22.9 1.6-26.9 7.5-19.3 32.1 3.2-1.3 6.3-2.5 10.2-4-2.6-4-4.7-7.2-8.1-12.3zm-481.7-575.6c4-23.7-2.4-39.8-19.6-50.4-8.8-5.4-13.7-12.1-18.6-21.2-5.5-10.2-16.5-17.5-27.2-28.3-2.2 19.5-5 34.1 7.7 45.8 10 9.2 19.7 18.8 29.6 28.2 8.5 8 17.2 15.8 28.1 25.9zm155.3-662.7 3.9 2.4c16.7-15.1 33.4-30 50-45.2 10.7-9.8 21.3-19.8 31.4-30.2 1.9-2 1.5-6.3 2.1-9.5-2.9-.3-6.2-1.6-8.7-.7-28.5 10.6-53.8 25.8-73.1 50.3 6.4 1.9 11.8 3.6 15.8 4.8-8 10.4-14.7 19.3-21.4 28.1zm-97.9 758.6c-3.3 24.5-.3 31.9 16.8 43.9 4.2 3 8.6 5.8 12.8 8.7-1.2 1-2.4 2-3.6 2.9-7.9-4.3-15.9-8.7-25.8-14.1 3.2 20.1 19.3 35.1 36.1 37.3 1.6.2 3.7.6 4.7 1.7 5.4 5.7 10.6 11.7 15.8 17.5 1.6-.9 3.3-1.8 4.9-2.8-2.7-6-4-15.7-8.4-17.5-20.1-8-18.4-24.5-18.9-40.8-.2-5.4-.5-12.7-3.8-15.6-9.1-7.9-19.9-14-30.6-21.2zm188.2 380.5c5.5 10.4 15.2 20.2 13.4 26.8-6 21.1 7.5 18.9 19.1 18.9 4.8 0 9.7-3.4 14.5-5.2-3.2-3.9-6.4-7.7-8.9-10.6 1.4-2.7 3.3-6.5 5.2-10.3.5 1.9.9 3.9 1.4 5.8 8.6 1 17.1 2 27.4 3.2-9.7-28.2-9.7-28.2-34.9-28.6-10.5-.1-21.1 0-37.2 0zm340 139.8c-4.9-10.1-9.1-15-20.3-11.5-13.2 4.1-27.2 5.9-41 7.7-26.8 3.5-53.6 6.2-80.5 9.3.1 1.7.3 3.3.4 5 47.9 15.1 93.6-2.3 141.4-10.5zM2723 537.6c3.4 11.6 6.5 22 10.7 36 4.5-11.1 6.6-19.6 11.1-26.5 10.7-16.4 9.9-30.7-1.3-47.3-8.2-12.2-11.9-27.6-17.6-41.5-1.5.4-3 .8-4.4 1.3 4.4 26.6 8.8 53.1 13.6 81.4-5.3-1.4-8.3-2.3-12.1-3.4zM1358.5 369.8c-30.2 29.2-87.3 132.7-89.5 158.7 27-16.1 23.9-51.5 46.8-74.2 20.4-20.3 27.9-53.7 42.7-84.5zM2591 1324c-1.1-1-2.1-2-3.2-3-19.3 22.8-37 47.3-58.4 67.9-21.5 20.7-46.6 37.7-70.1 56.3 59.8-23.8 97.7-70.4 131.7-121.2zM1578.2 944.8c-2.8 6.6-4.7 14-8.7 20-6.2 9.6-.3 13.9 6.6 17.4 3.8 1.9 8.7 1.8 13 2.6v16.2c1.8.6 3.6 1.2 5.5 1.8 4.5-12.9 13-26 12.5-38.8-.5-14.5-15-19.4-28.9-19.2zm164 549.1c2.1 21.5 22.3 28.3 59.6 19.8-1.6-24.2-21.4-30.8-59.6-19.8zm-544.5-876.6c1.9.1 3.8.1 5.7.2 2.2 12.6 4.3 25.2 7 41 6.5-23.6 12.2-44.3 18.7-67.8-13.9 4.5-25.1 8.2-37.6 12.3-2 16.8-4.1 34.4-6.2 52 1.7.2 3.5.4 5.2.7 2.4-12.9 4.8-25.6 7.2-38.4zm454.4 838.2c-.1 12.7 3.3 17.5 14.1 16.6 28.9-2.5 57.9-4.1 86.9-6.1-3.6-5.5-8.2-8.6-13-9.1-3.4-.3-7.2 4.8-10.6 4.6-25.5-1.5-50.9-3.8-77.4-6zm-180.3-453.9c-7.2-26.2-32.8-40.8-42.8-65.6-1.6-4.1-7.4-6.5-11.3-9.7-1.9.8-3.7 1.7-5.6 2.5 2.3 10.7 4.3 21.5 7.6 31.9.2.7 9.5-1.4 16.1-2.5-6.6 25.6 23.4 27.5 36 43.4zm-87.9-46.1c-6 34.8-.3 47.4 25.6 58.7 5.3-34.3 1.4-43.8-25.6-58.7zm807.1 469.6c-22.4-29.9-22.4-29.9-50.8-5.2 19 24.6 25.8 25.4 50.8 5.2zm-446.9 93.4c-7.8-26.8-11.7-29.7-32.7-22.8-6.4 2.1-11 3.5-17.8.2-4.2-2.1-11.2 1.3-16.9 2.3 0 1.6-.1 3.3-.1 4.9 20.5 10.8 42.7 15 67.5 15.4zm992.7-485.5c1.7.5 3.3 1.1 5 1.6 15.9-9.3 11.5-26.9 14.7-42.1 2.6 1.1 5.1 2.2 8.7 3.8 2.5-19.7 9.6-38.4-.7-59.8-5.3 18.7-9.6 34.1-14 49.6-4.5 15.7-9.2 31.3-13.7 46.9zm-1355-26.3c1.4 8.7-.1 18.8 4.1 22.5 14.5 12.6 31 22.9 46.8 34.1 1.2-.7 2.4-1.4 3.6-2-2.1-6.1-2.5-16.1-6.4-17.7-17.4-7.3-23.2-27.2-40-34.4-1.9-.9-3.9-1.2-8.1-2.5zm353.3 441.5c-29.7-7.9-59.5-11.6-89.6-.9 29.7 8.8 59.6 7 89.6.9zm-217.8-426.8c1.2.6 5.3 2.4 9.4 4.3l1.5-3.3c-4.3-3.5-8.6-7-13-10.5 15.7 8.9 30.1 15.7 47.1 2.4-18-23.7-39.9-4.7-59.1-9.4-1.4 1.3-2.7 2.6-4.1 3.8 3.2 6.3 6.3 12.6 9.5 18.9 2.2-1.5 4.3-3.1 8.7-6.2zm96.2 312.3c-9.8-32-35.8-28.9-59.4-39.7 4.5 10.7 5.5 20.4 10 22.5 14.6 6.8 30.5 10.9 49.4 17.2zm-224.8-438.8c-7.2 29.5-2.6 41.7 18.4 51.5 9.1-22.4 3.6-38.5-18.4-51.5zm218.4 414.1c1.5-1.8 3-3.5 4.4-5.3-5.7-5.9-10.4-13.7-17.2-17.3-12.5-6.5-26.2-10.4-43.4-16.9 4.1 7.9 5.5 16.2 10.1 18.7 14.7 8 30.6 14 46.1 20.8zm-344.3-355.9c-20.2 19.3-4 61.3 27.3 72.2-19.8-10.4-16.6-29.4-19.7-46.2-1.6-8.2-4.7-16.2-7.6-26zm-21-292.5c3.3-21.8 24.6-41.4 7.5-69.8-9.4 25.3-20.9 46.1-7.5 69.8zm168.8 307.7c5.6 7.2 8.7 11 9.3 11.8-2.7 5.2-5.3 8-5.4 10.9-1.5 28.7 3.2 39.4 19 44.9 4.1-31.2-4.4-61.8-22.9-67.6zm268.7 455.6-2.1 6.3c9.7 17.3 26.7 5.3 39.8 6.2 15 1 30.3-3 45.5-4.8-.1-1.8-.3-3.6-.4-5.3h-54.4c.1 1.3.4 4.1.4 4-10-2.3-19.4-4.4-28.8-6.4zm311.1 48.7c-9.4-14.1-21.4-19.1-36.7-15.1-9 2.4-11.1 7.4-4.9 15.2 10.8 13.7 23.5 13.9 41.6-.1zm-515.8-218.9c10.7 25.3 28.3 37 54.2 47-4.4-10.9-5.3-20.5-10.4-24.1-12.6-8.6-27.1-14.4-43.8-22.9zm-89.8-388.1c4.2-25.6-15.2-36.7-29.5-51.4-6.5 23.6 2.4 39.2 29.5 51.4zm171.1 231.1c-3.2 3-7.4 5-8.1 7.8-3.3 14.3 8.2 17.4 17.8 22.7 0-13.1-1-25.3.3-37.3 1.4-13-3.6-18.6-14.3-19.5-11.4 12.5-2.7 20.2 4.3 26.3zm105 384.2c21.3 18.5 44.7 6.5 67.5 3.8-21.4-17.1-45-2.8-67.5-3.8zm-427.4-608.6c1.1-31-.4-61.9-9.6-91.7-1.6 31-5 62.3 9.6 91.7zM2535 1319.2l8.1 6.6c16.4-20.8 32.9-41.6 49.3-62.4l-6.3-5.1c-17.1 20.2-34.1 40.5-51.1 60.9zm122.3-235.3c-23.2-.9-37.2 13.2-38.7 39 20.4-3.8 27.5-10.9 38.7-39zm-1052.8 199.4c-.5-20.7-17.8-33.8-44.2-32.3 3.7 7.2 5.2 15.7 10 18.6 10 5.9 21.7 9 34.2 13.7zm-350.8-547.9c-5.9 24.7-.3 38.2 21.1 53.7 10.1-24.9-10.4-36.1-21.1-53.7zm830.4 809.6c15.6 17.1 35.4 17.2 57.7-1.1-5.9-4-11.4-7.8-17-11.5v5.6c-13.3 2.3-26.7 4.6-40.7 7zm-375.4-336.2c-.1-1.8-.2-3.6-.3-5.3-11.5 1.9-23.1 3.6-34.6 5.9-8.4 1.7-16.7 5.8-12.6 16 2.2 5.5 9.2 9.1 16.5 15.9 1.5-11.4 2.2-17.1 2.6-20 11-4.8 19.7-8.6 28.4-12.5zm519.5 323.8c-19.6-12.2-46-3.2-60.9 20 20.3-6.7 40.6-13.4 60.9-20zm-957.5-694.9c-7.2 22.7-3.6 34 14.4 46.7 10.6-25.4 9.6-28.8-14.4-46.7zm379.3 488.2v-20.1c-12.8-4.1-24.5-7.9-36.6-11.8-1.8 18.7 3.8 23.3 36.6 31.9zm-91.7-63.7c-1.4-6.1-.9-15.3-4.6-17.6-10.9-6.9-23.6-11-36.8-16.8-.6 29 25 25.1 41.4 34.4zm924.5 112.7c27.5-5.1 37.1-26.8 53-44.2-20.8 3.5-38.5 18.3-53 44.2zm-881-138.5c-3.4-8.3-4.5-15.7-8.8-19.7-2.5-2.3-10.2.9-13.1 1.2-6.8-5-13.5-10-22.7-16.8.5 23 .5 23 44.6 35.3zm3.7-13.1c-1.7 17.4 12.7 26.3 38.4 25.1-2-17-8.1-21-38.4-25.1zM1519.2 258c-17.1 33.5-14.2 57 6.1 61.7-1.9-19.4-3.7-38.3-6.1-61.7zm1192.5 744.1c-2.1-.9-4.3-1.7-6.4-2.6-8.6 21.1-17.1 42.1-27.2 67 7.7-3.7 15.1-4.9 16.3-8.2 6.6-18.4 11.7-37.4 17.3-56.2zm-1093.6 317.7c-1.3 1.2-2.5 2.4-3.8 3.7 2.8 4.9 4.5 12.8 8.5 14.2 16.1 5.4 32.9 8.7 49.4 12.7.7-2 1.4-3.9 2.2-5.9-18.7-8.2-37.5-16.5-56.3-24.7zm652.3 123.2c11.3 19.8 19.1 20.3 42.8 3-6.2-4.9-12.3-9.8-18.7-14.8-3.8 2.1-7.4 4.2-11.3 6.1-4.2 2.1-8.5 3.8-12.8 5.7zm10.5 19.6c-20.4-17.6-25.9-17.6-41.6-1.8 12.1 23.9 26.3 9.4 41.6 1.8zm-735.3-279.5c2.5-16.2-7.7-24.4-38.2-31.6.3 14.9 13.1 25.8 38.2 31.6zm548.7 379.5c-19.2-18.3-39.3-17.7-52.6-.4 16.8 11.2 32.9 0 52.6.4zM1660.2 1387c-1.5-19-10.8-23.9-36.7-20.4 2.3 19.4 2.3 19.4 36.7 20.4zm1063-585.4c-13.9 17.1-9.7 36.6-7.3 55.8 12.7-17 14.7-35.8 7.3-55.8zm-125.1 363.2c24.7-1.8 22.2-28.1 42.2-34.8-20.7-7.4-30.8 2.1-42.2 34.8zm36.5-81.9c9.9-3.1 17.9-5.6 25.9-8.2 2-.7 4.8-1 5.8-2.5 2.4-3.6 5.2-7.8 5.2-11.7 0-1.9-6-5.2-9.4-5.4-13.9-.9-24.3 9.1-27.5 27.8zM1277.2 795.4c6.9 10.8 13.8 21.6 21.9 34.2 7.5-24.4 5.3-31.9-12.1-47.5-3.1 4.1-6.1 8.2-9.8 13.3zm314 654.8c10.2 24.6 29.2 13.5 42.2 18.3 2.6 1 7.2-3.4 10.8-5.3-.4-2.1-.7-4.1-1.1-6.2-15.9-2-31.7-4.1-51.9-6.8zm-289.7-497.8c8.5-22.3 5.4-34.8-10.4-45.2-7.2 21.6-4.3 35.4 10.4 45.2zm455.5 455.9c-4-12.8-22.8-17.1-44-11.1 4.5 12.7 23.1 17.7 44 11.1zm-195.1-421.7c.9-1.4 1.7-2.7 2.6-4.1-5.5-6.2-11.1-12.5-18.8-21.2-3.5 26-21.1 17.3-34.5 19.7 16.1 13.4 33.9 4.3 50.7 5.6zm-310.4-89c10.8-24.4 7.7-44.9-8-56.7 2.1 18.9-5.6 37.7 8 56.7zm30.2 86.6c2.1 14.1 2.2 29.5 18.6 36.6 1.1 8.1 2.5 17.9 3.9 27.6 1.6-.4 3.2-.7 4.8-1.1.6-25.1-10.2-45.6-27.3-63.1zm287.2 177.9c5-19.4.6-28.5-17.3-35.7-3.3 31.4-2.5 33.1 17.3 35.7zm31.7 92.5c.4-14.1-3.2-16.3-40.3-25.6.5 14.3 7.2 18.7 40.3 25.6zm610.1 187.8c-13.9-14.1-30.8-10.4-41 7.8 14.3 1.5 28.6 5.7 41-7.8zM2732 943c-17.4 2.6-27 30.1-20.7 51.1 7.7-18.8 14.2-35 20.7-51.1zm-1442.3 137.3c2.1-.7 4.2-1.3 6.4-2-1.7-5.8-6.7-13.5-4.7-17.1 12-21.1-8.5-22-19-29.5 5.8 16.2 11.5 32.4 17.3 48.6zm823.4 390.6c11.8 16 17.6 16.1 37.7.7-9.1-12.3-20-12.5-37.7-.7zm-32.4 27.8c-13.6-15.2-22.7-15.2-36.2-.7 13.1 12.3 21.9 12.7 36.2.7zM1636.8 320.6c-.7-3.2-1.3-6.3-2-9.5-19.2 4.9-38.4 9.7-57.6 14.6.5 2.2 1 4.4 1.5 6.7 19.4-4 38.8-7.9 58.1-11.8zm-390.3 487.5c-5.1 17.9-.4 29.5 15.3 40.3 8.6-18.6-2.3-29.3-15.3-40.3zm1263.2 437.1c-18 7.2-34.2 9.5-42.9 26.9 22.2 1.1 32.2-4.9 42.9-26.9zm-1272.1-310c2.4-.5 4.8-1.1 7.2-1.6-5.9-18.1.3-39.8-20.6-53.7 4.5 18.5 9 36.9 13.4 55.3zm239.8 216.6c1.2-23.6-7.3-31.6-33-34.2 3.1 5.3 7.4 9.3 11.6 13.4 6.3 6.2 12.6 12.3 21.4 20.8zm-249.3-418.1c1.7-.1 3.3-.3 5-.4-2.3-20.5 9.9-41.1.4-61.6h-5.3c-.1 20.6-.1 41.3-.1 62zm225.6 422.6c-3.2 18 4.1 24.7 29.6 29 1.1-21.7-20.9-17.1-29.6-29zm293.6 233.9c-10-18.5-26.4-10.5-40.9-11 10 16.7 27.1 8.2 40.9 11zm889.3-241.2c24-6.1 33.9-18.6 30.3-40.8-10.7 14.3-20.5 27.6-30.3 40.8zM1318.5 931.5c-1.8.3-3.5.7-5.3 1-7.6 22.6-4.7 33.4 13.3 36.2-2.8-13.3-5.4-25.2-8-37.2zm-72.2-234.4c-1 17.1-15.6 33.8-3 51.5 2.5-17.1 14.2-33.6 3-51.5zm.9 80.6c-1.3 22 4.1 31.7 21.4 39.5 4.3-19.5-9-28.3-21.4-39.5zm757 638.7c-.7 2-1.3 4.1-2 6.1 6.9 2.9 15.5 9.9 20.1 7.8 5.9-2.7 8.5-12.6 12.5-19.4-1.3-1-2.6-1.9-3.9-2.9l-26.7 8.4zm-5.6 28.1c-.7 1.8-1.5 3.7-2.2 5.5 7 6.4 14 12.8 23.8 21.9 1-13 1.6-20.1 2.4-30.3-8.4 1-16.2 2-24 2.9zm-20.9-17.2c8 16 16.8 18.1 31.4 7.4-12.8-17.2-13.1-17.2-31.4-7.4zM2738.9 852c-4.2 4.1-8.3 8.3-12.5 12.4 3 1.8 6 3.5 8 4.7-4.7 8.9-9.3 17.8-14 26.7 1.6.8 3.2 1.5 4.8 2.3 16.1-10 15.1-27.1 13.7-46.1zm-1210.3 430.1c1.5 17 5.5 29.1 24.4 27 2.5-17.8-7.9-24-24.4-27zm38.8-1039.3c-1.2-.9-2.3-1.8-3.5-2.7-5.8 6.2-10.8 13.4-17.4 18.5-12.1 9.4-9.5 16.4.6 24 7.2-14 13.8-26.9 20.3-39.8zm163.9 1233.7c6.4 10.5 23.9 12.3 40 4.6-12.6-13.6-25.9-8-40-4.6zm984.2-538.1c23.8-4.2 14.2-22.2 21.6-35.1-25.2 4.1-16.1 21.9-21.6 35.1zm-1239.3 180c-2.6-20.5-13-28.4-33.3-29.7-.9 1.3-1.8 2.5-2.8 3.8 11.2 7.9 22.3 15.9 36.1 25.9zm1213.9-50.2c-19.7 7.8-21.9 22-27.4 38.5 20.5-6.5 22-21.3 27.4-38.5zm-1415.8-258c-4.7 21 5.6 29.4 21.1 39.3.5-18.7-9.7-27.3-21.1-39.3zm690.5 679c6.8 6.3 11.9 11.1 17.7 16.5 2.4-7.8 4.1-13.7 6.3-21 5.2 2.9 8.7 5 12.3 6.8 3.3 1.7 6.8 3.1 12.7 5.8-10.9-17.3-18.4-18.3-49-8.1zm-579.5-140.4c1.8-1.5 3.7-2.9 5.5-4.4-11-14.4-22-28.9-33-43.3-2 1.6-4 3.1-6.1 4.7 11.3 14.3 22.4 28.7 33.6 43zM2121.6 50.1c-.5 1.8-.9 3.5-1.4 5.3 23.9 4.6 47.8 9.3 71.8 13.9.3-1.6.7-3.3 1-4.9-23.8-4.7-47.6-9.5-71.4-14.3zm-606.7 1162.6c6 20.8 26.9 13.6 38 24 .3-12.9-13.8-21.8-38-24zm25.3-11.3c-.2-1.6-.5-3.3-.7-4.9-9.6-3.2-19.2-6.3-28.7-9.5-1 1.6-2.1 3.2-3.1 4.8 5.6 5.2 10.4 12.1 16.9 15 3.7 1.7 10.3-3.3 15.6-5.4zm-60.4-207.6c-6.5 16.4.9 23.9 15.3 28.4 1.1-13.1 4.8-26.4-15.3-28.4zm17.2 371.6c-1.9 1.7-3.8 3.5-5.7 5.2 11.9 13 23.8 26 35.6 38.9 1.6-1.5 3.3-3 4.9-4.4-11.6-13.2-23.2-26.5-34.8-39.7zm1230-513.7c19.1-8.6 21.9-18.6 10.3-36.7-3.1 11-6.1 21.9-10.3 36.7zm-1149.1 332.9c-3.3 17.4 6.2 22.2 19.9 23.9 6.6-18.8-6-21.1-19.9-23.9zm443.7 284.6c8.3 21.7 19.9 24.6 37.7 10.8-12.5-3.5-24.3-7-37.7-10.8zm-354.4-101.7c-1.2 23.1 1.7 24.9 26.5 17.7-10.8-7.2-18.7-12.4-26.5-17.7zm-74.4 70.2c24.9 15.3 39 16.2 46.2 4.7-15.6-1.6-30.9-3.1-46.2-4.7zM1229 744.8c-2.1.3-4.2.7-6.3 1 4.4 12.4 8.7 24.7 13.1 37.1 10.4-23 9.8-24.6-3.9-21.8-1-5.4-2-10.8-2.9-16.3zm135.3 349.9c1.4-1.8 2.8-3.5 4.2-5.3-12-9.3-24-18.5-36-27.8-1.4 1.8-2.8 3.6-4.3 5.4 12 9.3 24 18.5 36.1 27.7zm190.2 78.5c-2.7 17.1-1 19.2 18 23.2 4.3-15-5.6-19.4-18-23.2zm354.4 265.5c-.2-1.4-.3-2.8-.5-4.3-14.7-2.2-28.4-.4-40.2 8.5.4 1.7.9 3.4 1.3 5.1 13.2-3 26.3-6.1 39.4-9.3zm-400.2-569.8c-1.1 1.3-2.2 2.7-3.3 4 2.5 4 5.4 11.7 7.5 11.5 7.3-.7 14.4-4.1 21.6-6.5-.4-1.6-.9-3.3-1.3-4.9-8.2-1.3-16.4-2.7-24.5-4.1zm-208.3-370.3c-1.6-.7-3.1-1.4-4.7-2-7.4 15.3-14.9 30.6-22.3 45.9 2.1 1 4.2 1.9 6.3 2.9 7-15.6 13.9-31.2 20.7-46.8zm8.5 558.1c-1.6 1.1-3.2 2.2-4.9 3.3 7.6 11.2 15.2 22.5 22.7 33.7 2.2-1.6 4.4-3.1 6.6-4.7-8.1-10.8-16.2-21.6-24.4-32.3zm1311.4 131.4c-2.2-1.6-4.4-3.3-6.6-4.9-7.1 9.7-14.2 19.5-21.3 29.2 1.9 1.4 3.8 2.9 5.8 4.3 7.3-9.5 14.7-19 22.1-28.6zm-68.7 153.7c-.6-.7-1.3-1.3-1.9-2-13.5 11.3-26.9 22.6-40.4 33.8 1.4 1.4 2.8 2.8 4.3 4.2 12.7-12 25.4-24 38-36zm88.8-161.3-6-4.5-22.2 36c2 1.2 4 2.5 6 3.7 7.3-11.7 14.7-23.4 22.2-35.2zm-1151.8-45.3c-1.9 1.4-3.7 2.8-5.6 4.2.5 11.3 3.5 20.5 21.9 16.7-5.4-6.9-10.8-13.9-16.3-20.9zm-196.1-247c5 2 9.1 3.6 13.2 5.2 1.3-.9 2.7-1.8 4-2.7-3-8.3-5.9-16.6-8.9-24.9-1.6.5-3.2 1.1-4.7 1.6-1.1 6.3-2.2 12.6-3.6 20.8zm32.8 207.5c-1.9 2-3.9 4-5.8 6 8.3 7.8 16.5 15.6 24.8 23.4 1.6-1.7 3.2-3.3 4.9-5-8.1-8.1-16-16.3-23.9-24.4zm1395.3-228c-2.6-.7-5.3-1.5-7.9-2.2-3.1 12.8-6.2 25.6-9.3 38.3 1.7.4 3.5.9 5.2 1.3 4-12.4 8-24.9 12-37.4zm-246.8 531.1c-11.3 8.4-20.5 15.3-33 24.6 22.6-.2 30.3-6.4 33-24.6zm-215.3 44.1c-5.4-5-9.4-8.8-15.2-14.2-4.6 9.3-8 16.2-11.5 23.2 1 .8 1.9 1.5 2.9 2.3 7.4-3.6 14.9-7.1 23.8-11.3zm-293.2 73.6c-.6 2-1.1 3.9-1.7 5.9 9.1 2.6 18.2 5.3 27.3 7.9.5-1.6.9-3.2 1.4-4.8-7.1-9.7-15.5-14.7-27-9zm-280.2-253.6c.4-14.9-8.2-18.7-20.7-19.2-4.2 19.7 13.7 13.4 20.7 19.2zm-330.5-940.4c1.8 2.2 3.7 4.4 5.5 6.6 6.3-4.4 12.6-8.9 18.9-13.3-3-2.6-7.9-8-8.7-7.4-5.6 4-10.5 9.2-15.7 14.1zm374.3 917.3c2.2-1.2 4.4-2.5 6.6-3.7-4.9-9.3-9.7-18.6-14.6-27.9-2.6 1.5-5.3 2.9-7.9 4.4 5.3 9 10.6 18.1 15.9 27.2zm697.3-3.1c.3 2 .6 3.9.8 5.9 13.4-4.3 26.7-8.7 40.1-13-.7-1.9-1.3-3.8-2-5.7-12.9 4.2-25.9 8.5-38.9 12.8zm-1121.3-136c-1.9 2.1-3.8 4.1-5.7 6.2 8.7 7.8 17.3 15.5 26 23.3 1.5-1.6 3-3.1 4.5-4.7l-24.8-24.8zm174.2 61.8c.7-1.4 1.5-2.8 2.2-4.2-9.7-5.7-19.4-11.3-29-17 2.1 17.3 14.7 18.8 26.8 21.2zM1588 904c-2.7 1.1-5.5 2.1-8.2 3.2 4.2 9 8.3 17.9 12.5 26.9 2.3-1 4.6-2 6.9-2.9-3.8-9.1-7.5-18.2-11.2-27.2zm256.7 605.6c-4.2-7.6-7.3-13.1-12.9-23.1-3.3 11-5.2 17.2-7.3 24.1 4.3.7 5.8 1.2 7.3 1 3.7-.3 7.3-1 12.9-2zm140.6-61c-1.8 2-3.5 4.1-5.3 6.1 7.2 6.1 14.3 12.2 21.5 18.3 1.6-1.8 3.1-3.6 4.7-5.4-7-6.3-14-12.7-20.9-19zm-725.9-855.5c1.5.3 3.1.7 4.6 1 2.3-12.2 4.6-24.5 6.8-36.7-1.8-.3-3.5-.5-5.3-.8-.7 5.1.2 13.4-2.4 14.6-13.3 6.6-4.1 14.6-3.7 21.9zm306.6 418.1 4.2 4.2c5.6-.3 11.1-.6 16.7-.9.7-1.4 1.5-2.9 2.2-4.3-4.6-3.8-9.3-7.6-13.9-11.4-3 4.1-6.1 8.3-9.2 12.4zm-47.9 40.8-5.3 5.3 23.9 23.9c2.2-2.2 4.3-4.5 6.5-6.7-8.4-7.6-16.8-15.1-25.1-22.5zm-253.8-181.6c-1.4 11.2-2.5 20.3-3.8 30.7 16.7-10.4 17.1-13.7 3.8-30.7zm350.3 39.1c-2.3-.3-4.7-.6-7-.9-.7 9.9-1.4 19.8-2.1 29.8 1.8.2 3.5.4 5.3.7 1.2-9.9 2.5-19.7 3.8-29.6zm14.1 564.2c-.9 2.2-1.7 4.4-2.6 6.7 8 3.2 15.9 6.5 23.9 9.7 1-2.6 2-5.3 3-7.9-8.1-2.8-16.2-5.6-24.3-8.5zm-353.1-717.1c1.6-1 3.2-2.1 4.8-3.1-6.7-10.5-13.4-21-20.1-31.6-1.8 1.2-3.5 2.3-5.3 3.5 6.9 10.4 13.7 20.8 20.6 31.2zM1447 991.5c-1.5 1.7-3.1 3.3-4.6 5 8.3 7.7 16.6 15.5 24.9 23.2 1.6-1.7 3.2-3.5 4.8-5.2-8.4-7.6-16.7-15.3-25.1-23z"/><path d="M2115.6 1334.8c-10.7 1.5-21.5 3-32.2 4.5 10.3-5.2 20.1-12.1 31-15.2 16.3-4.7 33.3-6.8 50.1-9.9-12.4 10.3-23.2 23.9-42.2 20.8-2.2-.1-4.4-.2-6.7-.2zM2373 1132.5c6.5-25.4 13-50.7 19.5-76.1-.8-.4-1.6-.8-2.4-1.1-8.8 21-17.5 42-26.3 63-1.2-.5-2.4-.9-3.6-1.4l31.8-79.2c-.9-.6-1.7-1.2-2.6-1.9-7.8 12.6-17.7 24.3-22.9 37.9-7 18.1-10.5 37.5-19.2 55.5 2.6-10.8 5.3-21.5 7.9-32.3 2.1-8.3 4.6-16.6 6-25 .5-3-1.6-6.5-2.5-9.7-3.1 2.1-7.4 3.6-9 6.5-3.6 6.5-5.9 13.7-10.2 24.4 2.2-17.2 3.9-30.3 5.6-43.3-1.2-.2-2.4-.5-3.5-.7-11 24.8-21.9 49.6-33.3 75.2v-52l-3-.3c-.8 8-.7 16.2-2.5 23.9-1.7 7.2-5.5 13.9-9.6 23.8-40.3-63.8-40-109.1 6-164.9 8.2-9.9 17.4-19.1 26.4-28.3 2.9-3 6.6-6.3 10.4-7.2 57.5-13.6 126.6-4.3 165.5 53.6 19 28.3 26.5 60.3 23.3 93.6-1 10.3-11.3 19.8-19.5 28.9.6-13.3 14.2-28.8-5.8-33.3 2.9-4.1 8.9-9.1 9.8-14.8 1.2-6.9 5.4-17.8-8.3-19-.5-20 3.2-41.1-18.8-54.1-4.5 9.1-8.9 18.3-13.4 27.5-1.2-.4-2.5-.8-3.7-1.3.4-3 .7-6 1.5-12.5-41.2 45.6-49.3 100.4-58.2 155.5l14.4-18.9-.3-.3c-2.5 12.5-4.5 25.3-19.8 32.9v-33.9c-1.6-.7-3.3-1.4-4.9-2.1-9.6 17.6-19.1 35.2-28.7 52.9-1.9-.8-3.8-1.7-5.8-2.5 3.3-13.2 6.7-26.4 10-39.6.4 6.3.8 12.5 1.1 18.8.7 0 1.5.1 2.2.1 9.2-22.9 18.4-45.7 27.6-68.6-1.9-1.3-3.9-2.6-5.8-3.9-4 5.1-9.4 9.7-11.8 15.5-5.2 12.6-9.1 25.8-13.6 38.7zm68.1-148.3c-6.4 9.5-10.4 21.3-18.6 26.3-25.4 15.4-19.7 41.8-29.3 64.7 19.7-4.9 47.9-60.8 47.9-91zm-57 39c2 1 4.1 1.9 6.1 2.9 15.4-27.5 30.9-55 46.3-82.5-2.6-1.4-5.3-2.8-7.9-4.2-14.8 27.9-29.7 55.9-44.5 83.8zm35-26.5c1.3.4 2.7.8 4 1.2 13-15.1 25.9-30.1 39.7-46.1-4.7-2.1-9.8-4.4-16.4-7.4-9.6 18.3-18.5 35.3-27.3 52.3zm29.9-2.4c18.5-14.2 21.4-20.4 17.2-34.8-6.6 13.1-11.9 23.9-17.2 34.8zM1896.9 1123.7c17.7 14.6 35.3 29.2 53.8 44.4 7.3-6.9 13.8-13 21.4-20.2-8.1-7.5-15.7-14.6-23.4-21.8l.9-1.5c2.5 1.4 5.2 2.5 7.3 4.3 11.4 9.8 20.7 8.8 36.2 3.5 22.3-7.6 48.2-5.4 72.7-6 15.4-.3 55.8 39.5 57.1 55 .4 5-.8 10.1-1.3 14.4-12.2-15.4-24.1-30.4-37.9-47.8-21.5 26.4-39.8 48.9-59.1 72.6l7 10.5.3-.3c-6.5-3.3-13.1-6.6-20.6-10.4-4.5 5.5-9.2 11.2-13.9 16.9-1.3-.8-2.6-1.7-3.9-2.5 3.2-6.7 6.4-13.4 10.6-22.1-10.8 6.5-19.9 12.1-29 17.6-1.2-1.1-2.5-2.1-3.7-3.2-1.2 9.9-2.3 19.8-3.8 32.1-3.9.9-10.4 2.4-16.9 4l.4.3c-4.9-20.1-9.9-40.1-15.2-61.7 3.1-6.4 7.6-15.6 11.6-23.9-17.6-18.1-34.7-35.6-51.8-53.1.4-.2.8-.7 1.2-1.1zm144.4 23.3c1.4 1.2 2.7 2.5 4.1 3.7-9.3 20.6-35 30.4-37.4 55.7 13.8-15.5 27.5-30.9 41.3-46.4 1.5 1.3 3.1 2.7 4.6 4-12.6 15.3-25.2 30.6-37.7 45.9 1.5 1.1 3 2.3 4.5 3.4 17.8-20.9 35.7-41.9 53.5-62.8-1.4-1.9-2.8-3.7-4.2-5.6-4.8 1.9-9.5 3.9-14.6 5.9-8.2-7.4-18.1-19.9-30.1-6.5-12.8 14.3-22.4 31.6-33.4 47.6 1.4 1.1 2.8 2.2 4.2 3.2 15.2-16 30.2-32 45.2-48.1zm-35.6 5.5c-1.2-.9-2.5-1.7-3.7-2.6-9.2 11-24.4 17.5-21.9 37.1 8.5-11.5 17-23 25.6-34.5zM1706.7 496.8c2.6 7.9 5.2 15.4 7.7 23 1.4-.5 2.9-.9 4.3-1.4-3.1 16.5-2.6 28.6 13.2 41.9 22.3 18.7 32.8 24.1 52.9 8.1 23.4-18.7 29.3-49.5 10.2-69.2-11.1-11.5-27-18.4-41.2-26.7-5.3-3.1-11.8-4.1-17.7-6 .2-1.8.4-3.6.7-5.4 11.8 1.3 23.7 2.8 35.5 3.7 10.5.8 19.9 12.8 30.8 8 1.4-2.4 2.8-4.9 4.2-7.3 7 12.5 16.7 24.4 20.4 37.8 4 14.7 3.7 30.9 3.1 46.4-1 24.7-16.1 41.4-40.7 44.5-12.6 1.6-26 1.7-38.4-.7-40.3-7.4-65.8-63.7-45-96.7zM1764.9 279.3c0 3.1.6 5-.1 5.8-55 61.9-124.7 93.4-206.5 99.3-4.8.3-10.1-3.7-15-5.9-5.4-2.4-10.6-4.9-17.9-8.3 29.6-2.6 57.6-5.1 85.5-7.5-.1-1.8-.1-3.7-.2-5.5-29.1-12-61 13.8-92.8-4.5 95.1-5.7 159.1-18.4 158-30.8 33.3-5.1 60.5-23 89-42.6zM1408.1 613.8c-9.7-3-19.5-6.1-33.6-10.5 3.3 15.1 5.7 26.6 8.2 38-1.2.4-2.4.7-3.5 1.1-13.9-39-27.7-78-41.6-117 1.9-.7 3.9-1.4 5.8-2.1 3.7 11.5 7.5 23.1 11.5 35.4 4-1.3 7.9-2.5 11.7-3.7-10.3 10.9-8.7 21.6-.6 32.3 8.2 10.9 19.5 13.6 34.9 12.7-6.5-19-12.1-36.2-18.4-53.1-.8-2.2-5.8-2.6-7.5-4.9-3.7-4.8-9.9-10.9-9.1-15.2 4.4-22.4-5.3-40.9-13.2-60.3-4.1-10.2-6.7-21-10-31.5l5.7-2.4c1.7 3 4 5.9 4.9 9.2 5.6 19.5 10.7 39.1 16.5 58.5.5 1.5 4.7 1.9 7.6 2.9-.7 2.1-1.8 5.4-3 8.6.7.8 1.5 1.6 2.2 2.4 4.1-3.4 11.2-6.5 11.6-10.3 1.1-9.9 7.6-8.6 13.5-9.1 20.3-1.9 39.6 8 45.7 24.6 1.7 4.7-.7 10.9-1.5 16.4-.5 3.6-2.8 7.5-2.1 10.8 3.6 17.1-2.6 29.1-15.8 40.3-8.7 7.1-14 18.5-19.9 26.9zm-2.4-15.9c18-14.6 23.7-33.9 25.8-55.4 1.2-11.8-2.3-21.3-13.7-23.5-10-1.9-22.3-2.2-30.7 2.3-3.9 2-3.1 17.6-.7 26 4.9 16.7 12.3 32.7 19.3 50.6zM2289 634.3c-5.6-12.5-11.9-24.7-16.8-37.5-8.4-21.8-21.9-34.6-46.5-38.6-19.2-3.2-37.3-13-55.7-20.4-33.3-13.2-88.7 1.6-110.2 30.1-2.5 3.4-2 9-3.1 15.3-8.8-8.6-6.2-16.3.5-23.4 16.3-17.3 36.1-30.8 59.7-31.7 22.6-.9 45.4 4.4 68.2 6.4 7.4.6 14.9-.8 22.4-1 5.5-.2 11.7-1.7 16.5.1 41.9 15.4 68.2 53.9 65 100.7zM1423.2 885.9c-8.8-8.3-18.9-17.9-29-27.6.9-1.1 1.8-2.3 2.7-3.4 4.8 3.8 9.6 7.6 16.9 13.4.8-14.2 1.4-25.8 2.2-37.3.8-11.2 2-22.4 6.4-33.5-1 16.1-2.1 32.2-3.1 48.3 1.6.4 3.3.9 4.9 1.3 2.2-8.3 4.4-16.7 6.9-26.1 1.6 2.2 3.4 4.4 7.7 10.2 14.6-15.8 28.6-31.3 43-46.3 2.1-2.2 6.1-3.2 9.3-3.5 10.1-1.2 20.3-1.4 30.4-2.7 15.2-1.9 26.7 6.5 29.6 19.5-9.4-.3-19.5-1.6-29.5-.8-27.9 2.1-53.9 7.5-69.9 35-5.8 10-18.1 16.1-24.5 25.9-3.9 6-2.5 15.6-4 27.6zM1931.4 919.9c7.5-14.1 18.5-18.7 32.2-16.6 20.7 3.2 36.9 14.3 48.4 31.7 10.6 16.1 10 29.3-.9 41.2-14.1 15.3-33.5 19.8-49.3 11.3-2.1-1.1-4.1-2.6-9-5.8 2.5 6.5 3.7 9.7 6.7 17.3-21-12.2-25.5-31.8-36.9-46.5 4.4-3.5 7.4-6.9 11.1-8.5 3.5-1.5 7.8-.9 11.7-1.3-.2 3.8-.5 7.6-.6 11.4 0 4.6-1.6 10.4.6 13.5 9.5 13.6 32.9 19 48.2 12.3 13.6-6 17.9-15.6 13.4-29.9-10.3-32.5-40.1-44.8-75.6-30.1zM2239.2 219.7c-10.2 5.2-20 13.5-30.7 15-22.7 3.2-45.9 3.1-68.9 3.5-3.7.1-9.4-3.3-11-6.6-9-18.8-13.1-38.8-6.8-59.3 1.9-6.2 8-11.1 14.2-15.8-12 32.1 7.4 52.6 27.1 68.9 25.6 21.1 49.4-2.9 73.4-12.1 1 2.1 1.8 4.2 2.7 6.4zm-104.4-14.3c-1.8.3-3.6.7-5.4 1 1.6 7.2 2.3 14.9 5.5 21.4.7 1.5 9.7-1 17.9-2-7.7-8.7-12.9-14.6-18-20.4zM2031.7 663.4c.4 91.1 107.8 137.7 200.5 102.3-5 3.6-9.6 8.5-15.2 10.4-9.6 3.2-19.7 5.6-29.7 6.3-40.1 2.7-78.4-5.7-114.4-23.1-23.8-11.5-45.9-64-41.2-95.9z"/><path d="M2422.9 1124.6c.9-7.3 0-13.9 11.6-15.6 5-.7 8.2-14 13.3-23.7-1.2 8.8-2 15.3-2.9 21.9 1.6.8 3.3 1.5 4.9 2.3 8.4-17.4 16.7-34.8 25.1-52.2 2.6 1.3 5.2 2.5 7.8 3.8-7.1 14.5-14.1 29-22.1 45.5 18-2.9 36.1-5.9 54.2-8.8.2 1 .5 2 .7 2.9-16 3.4-31.8 8.1-48 9.7-15.9 1.5-22.7 9.6-25.1 24.2-1.5 9.4-2.8 19.4-17.8 22.7 3.1-13.6 5.8-25.6 9.3-40.5-5.6 3.9-8.5 5.9-11.3 7.8 0-.3.3 0 .3 0zM2160.3 655c2-7.9 2.1-17.1 6.3-23.6 10.6-16.4 41.8-26.6 60.6-21.5 15.4 4.2 22.1 14.5 19.4 30.2-4.4 25.9-14.8 37-35.7 37.9-1.7.1-3.5-.9-6.5-3.3 24.9.6 29.1-15.7 31.8-34.1 1.6-10.8-3-15.9-12.5-18.9-27.4-8.9-51.5 5.2-57.9 34-1.8-.3-3.6-.5-5.5-.7zM1950.7 1263.3c22.2 15.7 44.3 31.5 66.5 47.2-.8 1.2-1.7 2.5-2.5 3.7-22.6-15.3-44.9-31.1-67.9-45.6-22.4-14.2-40.5-33.4-61.2-49.6-21.9-17.1-42.8-35.5-62.4-55.6 42.6 33.4 85.2 66.8 127.9 100.2l-.4-.3zM1895.7 1125c-37.7-35.1-75.2-70.3-113-105.2-18.4-17-37.1-33.6-55.7-50.4 1.9-1.9 3.8-3.8 5.7-5.8 13.7 13.2 27.4 26.3 40.9 39.6 41.1 40.1 82.2 80.3 123.3 120.5-.4.4-.8.9-1.2 1.3zM2241.2 201.5c-5-13.1 4.2-28.7-13.8-36.2-22.3-9.3-44-17.5-68.3-8.8-2.3.8-4.3 2.2-9.5 5 8.5-16.5 20.9-20.1 33.6-17.2 17.6 4 35.2 9.7 51.6 17.2 16.9 7.6 18.5 21.3 6.4 40zM2660.1 637.5c-4.1 1.2-9.2 4.7-12.2 3.3-20.7-9.1-24.6-47.8-6.4-60.9 7.9-5.7 16.2-7.9 24.7.3 5.7 5.5 12.5 10 18.8 14.9-.5 1.4-.9 2.8-1.4 4.3-5.2-2.1-10.3-4.5-15.5-6.3-7.1-2.5-14.3-4.5-21.5-6.8-2.5 10.9-7.1 21.9-6.7 32.8.2 5.3 9.5 10.3 14.7 15.4 1.9.9 3.7 2 5.5 3zM2530.3 772.5c-39.4 6.5-57.1-4.5-70.9-41.6-11.5-30.8-9.4-57.5 9.6-70.3-15.5 28-10.2 51.5-1.5 76.5 11 31.4 38.1 29.6 62.8 35.4zM2392.1 485.6c7.3 1.4 14.2 2.8 21.1 4.1.7-7.1 1.5-14.2 2.2-21.3-7.2 2.8-14.4 5.5-23.7 9.1 1.3-11.6 7.3-19.7 18.5-20.5 5.4-.4 16.3 7.1 16 10-1.4 11.4-4.2 23.8-10.6 33-4 5.5-21.1-5.9-23.5-14.4zM1556.5 445.7c3.8-1.8 8.6-6.1 11.2-5 10.2 4 22.5 7.5 28.9 15.4 11.8 14.6 20 32.1 28.2 49.2-26.1-13.8-22.9-60.6-65.4-54.3-.9-1.8-1.9-3.6-2.9-5.3zM2616 930.5c-1 5.7-2.5 11.4-2.7 17.1-.1 2.7 2.3 5.5 3.1 7.3-10.7 25.7-21.9 52.9-33.2 80.1-.5-.2-1-.3-1.6-.5 5.8-18.1 15-35.9 16.3-54.2 1.4-19.3 11-33.5 18.5-49.4l-.4-.4zM1705.6 839.3c28.6 24.8 57.3 49.7 85.9 74.5-1 1.2-2 2.5-3 3.7-5.6-1.2-11.2-2.3-13.1-2.7-5.9-9.5-9.3-17.4-14.8-23.3-17.3-18.5-35.4-36.3-53.2-54.4-.6.7-1.2 1.5-1.8 2.2zM1348.2 621.5c-16.7-11-17.4-29.9-19.5-50.4 4 5.5 6.9 9.4 10.2 14 2.7-2.3 5-4.2 6.7-5.7.8 13.9 1.7 28.1 2.6 42.1zM1302.3 553c1.7-27.9 16.8-50.5 30.2-73.9-6.1 19-12.3 38.1-18.7 58.1-3.1 4.1-7.5 9.8-11.9 15.6.1-.1.4.2.4.2zM2445.7 1076.1c-1.8-24 17.1-41 22.3-62.7 1.5.5 3.1 1.1 4.6 1.6-2.4 6.5-5.4 12.9-7.1 19.6-2.5 9.8-3.3 20-6.1 29.7-1.4 5-5.6 9.2-8.5 13.8-1.7-.7-3.4-1.4-5.2-2zM1468.3 611.8c14.2 24 29.6 41.1 59.5 36.5-23.5 14.5-54.4-4.2-59.5-36.5zM2031.7 1231.1c19.5 7.8 42.5 9.2 55.9 28.1-1.1 1.9-2.2 3.9-3.3 5.8-17.4-11.4-34.9-22.8-52.3-34.3-.1.1-.3.4-.3.4zM1368 673.1c-1.5 5.8-2.3 8.9-3.2 12.8-2.2-14.8-4.3-28.4-6.3-42.1.7-.3 1.3-.6 2-.8 8.1 18.7 16.2 37.3 24.3 56-1.5.6-3 1.3-4.4 1.9-3.8-8.5-7.6-17-12.4-27.8zM1781.2 279.8c17.2-20.9 34.3-41.7 51.5-62.6-13.2 24.5-27.1 48.4-51.5 62.6z"/><path d="m2616.4 930.9 17.4-74.4 7.2 2.1c-8.3 24-16.6 48-25 72 0-.1.4.3.4.3zM1633.7 576.2c.6 23.7-11.6 43.2-26 45.8 8-14.1 17.3-30.5 26-45.8zM1421.9 452.5c-6.9-22.5-13.8-44.9-20.7-67.4 1.4-.4 2.8-.8 4.2-1.3 6.7 22.5 13.4 45 20.2 67.5-1.2.4-2.5.8-3.7 1.2zM1656.6 882.6c-12.8-16.2-25.5-32.3-38.3-48.5 1.1-.9 2.3-1.8 3.4-2.7 12.9 16.1 25.8 32.1 38.7 48.2-1.2 1-2.5 2-3.8 3zM1837.9 958.5l41.7 45.9c-.1.2-.2.3-.4.5-15-14.3-30.1-28.6-45.1-42.8 1.3-1.2 2.6-2.4 3.8-3.6zM1735 922.3c13.5 14.9 26.9 29.8 40.4 44.7-1.1 1-2.1 2-3.2 3-13.5-14.7-27-29.5-40.4-44.2 1.1-1.2 2.2-2.3 3.2-3.5zM1413 348.5c4.4 16.6 8.7 33.1 13.1 49.7l-4.5 1.2c-4.5-16.5-8.9-33.1-13.4-49.6 1.6-.4 3.2-.9 4.8-1.3zM1388.5 408.1l12.9 48.9c-1.2.3-2.4.7-3.6 1-4.6-16.1-9.2-32.3-13.8-48.4l4.5-1.5zM1689.3 1130.6c4.4 2.2 8.9 4.3 13.3 6.5 20.6 19.8 41.2 39.7 61.7 59.5-.8.9-1.6 1.7-2.4 2.6-16.4-14.7-32.8-29.4-52.5-47.1.8 11.3 1.2 17.4 1.6 23.4-4.4-16.5-7.4-33.4-21.7-44.9zM1981.3 1409.3c-8.8-11.6-17.6-23.3-26.5-34.9 16.8 9.3 23.1 38.5 51.5 26.9-8.5 2.5-17 5-25.5 7.6 0-.1.5.4.5.4zM1837.7 1334.7c-10.6-13.7-21.3-27.5-31.9-41.2 1.6-1.1 3.2-2.2 4.8-3.4 9.4 14.6 18.7 29.1 28.1 43.7l-1 .9z"/></g></svg>