<svg xmlns="http://www.w3.org/2000/svg" width="42" height="42" viewBox="0 0 42 42">
  <g id="telegram-dark" transform="translate(-0.196 0.176)">
    <rect id="Rectangle_23" data-name="Rectangle 23" width="42" height="42" rx="5" transform="translate(0.196 -0.176)" fill="#fff" opacity="0"/>
    <g id="telegram-black-icon_00000026864763179030743190000004300775163764009644_" transform="translate(0.096 -0.076)">
      <path id="Path_1095" data-name="Path 1095" d="M26.5,29.4l-.7-.8-1-.7-1.1-.6-.8-1-1.3-.4-.8.8-.9.5-.7.9-.5.2.2-.5v-2l-.1-1,.3-.8.6-.8.9-.5.8-.9.8-.7.8-.7.8-.8.7-.9.8-.7.9-.5.8-.9,1.3-1.2-1.2.1-1,.5-1.8,1.2-1,.4-1,.5-.9.8-.9.3-1,.6-.9.7-.8.7-.9.6-.9.4-.8-.3-.9-.4-1.1-.2-.9-.3-.9-.2-.6-.7.7-.6,1.1-.2,1-.4,1.1-.6,1-.2,1-.3,1.1-.3,1-.5,1.1-.4,1-.5,1-.3,1-.6,1-.2,1.1-.5,1-.3,1.1-.4,1-.4,1-.7.9-.3,1.1.3.2,1.1-.5,1V16l-.3.9-.4,1v1.2l-.2,1.1-.3,1-.4,1v1.2l-.2,1-.1,1.1-.4,1-.2,1.1-.2,1-.6.8Z" fill="#d3d1a6"/>
      <path id="Path_1096" data-name="Path 1096" d="M30,12.7l.8.2.1.9-.4.9v1.2l-.3.9-.4,1v1.3l-.2,1-.3,1-.4,1-.1.1v.1l.1,1.1-.2,1h0l-.1,1-.3,1h0l-.2,1.1-.2,1-.5.6h-.8l-.7-.7-.9-.7h-.2l-1-.4-.7-.9-.1-.1-.1-.1-1.1-.4-.3-.1-.2.2-.6.6-.9.5h-.1l-.1.1-.5.7h0v-2h0l-.1-1,.3-.7.5-.7.9-.5h.1v-.1l.7-.8.8-.7.9-.7.8-.8h0l.7-.8.7-.7.9-.5h.1l.1-.1.7-.8L28,16l.9-.9h-2l-1,.5h0l-.9.8-.9.6-1,.4-1,.5H22l-.7.7-.9.4h0l-.9.6-.9.6h0l-1,.8-.8.6-.8.3-.7-.3-.9-.4h-.2l-1-.1-.9-.3-.8-.2-.4-.4.5-.4,1-.2h0l1-.4h0l.9-.5,1-.2h0l1-.4,1.1-.3h0l1-.5,1-.3h0l1-.4,1-.4h0l.9-.5,1-.1h.2l.9-.5,1.1-.3,1-.4,1-.4h.2l.9-.6,1.2-.7m0-.6-1,.4-1,.7-1,.4L26,14l-1.1.3-1,.5-1.1.1-1,.6-1,.4-1,.5-1.1.4-1,.5-1.1.3-1,.4-1.1.2-1,.6-1,.4-1.1.2-1,.8.9.9,1,.3,1,.3,1,.1.9.4.9.3,1-.4.9-.6.8-.7.9-.6.9-.6,1-.4.8-.7,1-.5,1-.4.9-.6.9-.6,1-.5h.5l-.8.8-.8.8-1,.5-.8.8-.7.9-.8.8-.8.4-.8.7-.7.8-1,.6-.6.9-.4.9.2,1v2l-.4,1,1.2-.5.6-.9,1-.6.7-.7,1.1.4.8,1,1.1.5.9.8.9.9h1.2l.7-.9.2-1.1.2-1.1.4-1,.1-1.1.3-1.1-.1-1.1.5-1,.3-1.1.2-1.1V18l.4-1,.3-1V14.9l.5-1-.2-1.3L30,12.1Z"/>
    </g>
  </g>
</svg>
