<svg xmlns="http://www.w3.org/2000/svg" width="42" height="42" viewBox="0 0 42 42">
  <g id="twitter-dark" transform="translate(0.443 0.176)">
    <rect id="Rectangle_23" data-name="Rectangle 23" width="42" height="42" rx="5" transform="translate(-0.443 -0.176)" fill="#fff" opacity="0"/>
    <g id="twitter-black-icon" transform="translate(-0.943 -0.226)">
      <path id="Path_1097" data-name="Path 1097" d="M12.3,27.7l4.9-1.8-3.5-2.8,1.2-.2.4-.1L12.2,19l1.6.2-1.4-5.6,8.7,4.7.1-1.5,1.1-2.9,5.8.3,1.9-.7-1.9,2.1,2.7-.7-1.6,1.8v.7l-3.7,8.4-8.4,3.3Z" fill="#d3d1a6"/>
      <path id="Path_1098" data-name="Path 1098" d="M12.8,14.1l7.8,4.3.7.4.1-.8.1-1.1,1-2.7,5.6.3h.2l.8-.3-.6.7L27.4,16l1.6-.4,1.1-.3-1,1.1-.1.1v.9h0l-3.6,8.2-8.2,3.2-3.9-1.1,3.8-1.4.8-.3-.7-.6-2.7-2.2.7-.2.8-.2-.5-.6-2.4-3,.6.1.7.1-.2-.7-1.4-4.6m18.1-1.3L28.1,14l-6-.4-1.2,3.1-.1,1.2L12,13.1l1.4,5.8-1.8-.2,3.2,3.9-1.2.3-.8-.1,3.8,3-5.2,1.9-.9-.3L17,29.3l8.6-3.4,3.8-8.5v-.7l2.1-2.3-2.7.7,2.1-2.3ZM11.5,18.5l-.2.1h.4l-.2-.1Z"/>
    </g>
  </g>
</svg>
