<svg xmlns="http://www.w3.org/2000/svg" width="42" height="42" viewBox="0 0 42 42">
  <g id="Group_85" data-name="Group 85" transform="translate(0.017 0.024)">
    <g id="discord-dark" transform="translate(0.083 0.176)">
      <path id="Rectangle_23" d="M4.9-.2h32a4.951,4.951,0,0,1,5,5v32a4.951,4.951,0,0,1-5,5H4.9a4.951,4.951,0,0,1-5-5V4.8A5.081,5.081,0,0,1,4.9-.2Z" fill="rgba(255,255,255,0)"/>
    </g>
    <g id="Path_1080_00000142147827458170250590000010422012605803238024_">
      <path id="Path_1088" data-name="Path 1088" d="M31,23.2l-.1-1-.3-1h0l-.1-1-.1-.9-.6-.8-.1-.1v-.1l-.2-1-.5-.9h0l-.3-.9-.4-.5h-.1l-1-.4h-.1l-.9-.6-1-.1h-.3l-.7-.2-.4.8-.1.3H22.2L21,14.6h0l-1.1-.2-1.1.3-.4.1-.2-.4-.3-.7-.8.2-1.1.2-1,.3-1,.4h0l-.3.6-.4,1v.2l-.6.7-.2.9v.1l-.1.1-.6.8-.2.9-.2,1v1h0l-.2,1h0l-.3.9.1,1,.1.5.1.1.8.8.9.6,1.1.4,1,.6.8.3.4-.4.3-.5-.5-.2h0l-.8-.4h0l-.2-.1-.1-.1-.1-.2v-.1l-.2-.7h3.2l-.6.3.7.5,1,.1h0l1,.2,1,.1h1l1-.3,1.1-.3,1.1-.2.8-.4.2-.2.3.1.4.1.9.3-.5.4.2.3-.4.3-.8.4-.4.2.2.3.6.6.6-.1.9-.7.1-.1h.1l1.1-.4,1-.4.6-.8.1-.8.2-1ZM19.9,22.1v1l-.1.1-.8.9-.1.1h-.1l-1.1.3-.4.1-.1-.2-.8-.2-.2-.1-.1-.2-.5-1-.4-1-.1-.2.1-.2.3-1v-.2l.6-.8.1-.1h.1l.7-.2v-.4l.6.2,1,.4.2.1.1.2.5,1,.4,1,.2.4Zm7,.1v.9l-.1.1-.8.9-.1.1h-.2l-1,.3-.2.1-.2-.1-1-.3-.2-.1-.1-.2-.5-1-.4-1-.1-.1.1-.2.3-1v-.1l.1-.1.6-.8.1-.1h.1l.7-.2v-.4l.6.2,1,.4.2.1.1.2.5.9.4,1,.2.5Z" fill="#d3d1a6"/>
      <path id="Path_1089" data-name="Path 1089" d="M25.1,27.2l-.3.1.3-.1Z"/>
      <path id="Path_1090" data-name="Path 1090" d="M31.5,23.2l-.1-1-.3-1-.1-1L30.8,19l-.7-.9L29.9,17l-.5-.9-.4-1-.7-.8-.1.1L27.1,14l-1-.6L25,13.3,24,13v.1l-.5,1.1H22.3L21,14.1l-1.2-.2-1.2.3L18.1,13l-.1.1-1,.3-1.1.3-1.1.3-1,.5-.1-.1-.5.9-.4,1-.7.8-.2,1-.6.9L11,20l-.2,1v1.1l-.2,1-.3,1,.1,1.1.1,1,.2-.1.9.8,1,.6,1.1.4,1.1.4,1.1.5.7-.7.4-.9v-.3h0l-.9-.3-.8-.4-.1-.1v-.2h.4l1.1.1.9.7,1.1.1,1.1.2,1.1.1H22l1-.4,1-.2,1.1-.2,1-.5h0l.4.1-.2.1.1.2-.8.4-.8.4.5.8.7.8.2.4,1.2-.2,1-.8,1.1-.4,1.1-.4.7-1v.1l.1-1,.2-1.1Zm-.6,2-.1.8-.6.8-1,.4-1.1.4H28l-.9.7-.6.1-.5-.6-.2-.3.4-.2.8-.4.5-.3-.2-.3.5-.4-.9-.3-.4-.1-.3-.1-.2.2-.8.4-1.1.2-1.1.2-1,.3H21l-1-.1-1-.2h0l-1-.1-.7-.5.6-.3H14.7l.2.7v.1l.1.2.1.1.1.1h0l.8.4h0l.5.2-.3.5-.4.4L15,28l-1.1-.4-1.1-.4-.8-.6-.8-.8-.1-.1-.1-.5-.1-1,.3-.9h0l.2-1h0v-1l.2-1,.2-.9.6-.8.1-.1v-.1l.2-.9.6-.7v-.2l.4-1L14,15h0l1-.4,1-.3,1.1-.2.8-.2.3.7.2.4.4-.1,1.1-.3,1.1.2h0l1.2.1h1.5l.1-.3.4-.8.7.2h.2l1,.1.9.6h.1l1,.4h.1l.4.5.3.9h0l.5.8.2,1v.1l.1.1.6.8.1.9.1,1h0l.3,1,.1,1,.1,1Z"/>
      <path id="Path_1091" data-name="Path 1091" d="M26.9,21.6l-.4-1-.5-.9-.1-.2-.2-.1-1-.4-.6-.2v.4l-.7.2h-.1l-.1.1-.6.8-.1.1v.1l-.3,1-.2.3.1.2.4,1,.5,1,.1.2.2.1,1,.3.2.1.2-.1,1-.3h.2l.1-.1.7-.8.1-.1v-.9l.2-.1Zm-.5.2v1.1l-.7.8-1,.3h0l-1.1-.3-.5-1-.4-.9.3-1,.6-.8,1-.3v-.1l1,.4.5.9.3.9Z"/>
      <path id="Path_1092" data-name="Path 1092" d="M19.9,21.6l-.4-1-.5-1v-.1l-.2-.1-1-.4-.6-.2v.4l-.7.2h-.1l-.1.1-.6.8v.2l-.3,1-.1.2.1.2.4,1,.5,1,.1.2.2.1.8.2.1.2.4-.1,1.1-.3h.1l.1-.1.7-.8.1-.1v-1l.2-.1Zm-.5.2v1.1l-.7.8-1.1.3h0l-1.1-.3-.5-1-.4-.9.3-1,.6-.8,1-.3v-.1l1,.4.5,1,.4.8Z"/>
    </g>
  </g>
</svg>
