<?xml version="1.0" encoding="utf-8"?>
<!-- Generator: Adobe Illustrator 26.4.1, SVG Export Plug-In . SVG Version: 6.00 Build 0)  -->
<svg version="1.1" id="Layer_1" xmlns="http://www.w3.org/2000/svg" xmlns:xlink="http://www.w3.org/1999/xlink" x="0px" y="0px"
	 viewBox="0 0 42 42" style="enable-background:new 0 0 42 42;" xml:space="preserve">
<style type="text/css">
	.st0{fill:none;}
	.st1{fill:none;stroke:#15141A;}
	.st2{fill:#15141A;}
</style>
<g transform="translate(-8636 1446)">
	<rect x="8636" y="-1446" class="st0" width="42" height="42"/>
	<g transform="translate(7409 -1893)">
		<g transform="translate(1232 452)">
			<circle class="st0" cx="16" cy="16" r="16"/>
			<circle class="st1" cx="16" cy="16" r="15.5"/>
		</g>
		<path class="st2" d="M1247.1,470.7v-0.5c0-0.6,0.1-1.2,0.4-1.7c0.3-0.7,0.7-1.3,1.2-1.8c0.4-0.4,0.7-0.9,1-1.4
			c0.2-0.4,0.3-0.8,0.3-1.2c0-0.5-0.2-0.9-0.6-1.2c-0.5-0.3-1-0.5-1.5-0.4c-0.5,0-0.9,0.1-1.3,0.2c-0.4,0.1-0.8,0.3-1.2,0.5v-1.4
			c0.4-0.2,0.8-0.4,1.3-0.5c0.5-0.1,0.9-0.2,1.4-0.2c0.6,0,1.2,0.1,1.8,0.3c0.5,0.2,0.9,0.5,1.2,1c0.3,0.4,0.5,1,0.4,1.5
			c0,0.4-0.1,0.8-0.2,1.1c-0.1,0.4-0.3,0.7-0.6,1.1c-0.3,0.4-0.6,0.8-1,1.2c-0.5,0.5-0.9,1-1.2,1.6c-0.2,0.4-0.4,0.9-0.4,1.4
			l-0.1,0.4H1247.1z M1246.6,474v-1.8h1.9v1.8H1246.6z"/>
	</g>
</g>
</svg>
